<svg xmlns="http://www.w3.org/2000/svg" viewBox="0 0 87.12 82"><defs><style>.cls-1{fill:currentcolor;stroke:currentcolor;stroke-linecap:round;stroke-linejoin:round;stroke-width:2px;}</style></defs><title>Asset 8</title><g id="Layer_2" data-name="Layer 2"><g id="Layer_1-2" data-name="Layer 1"><polygon class="cls-1" points="1 35.49 20.14 45.41 11.16 34.78 1 35.49"/><polyline class="cls-1" points="11.16 34.78 23.91 21.87 29.58 34.78 22.5 47.85 20.14 45.41"/><polyline class="cls-1" points="23.91 21.87 57.3 36.2 36.51 52.73 35.8 64.31"/><polyline class="cls-1" points="55.16 35.28 86.12 1 78.09 42.1 83.05 64.31"/><polyline class="cls-1" points="78.09 42.1 57.3 36.2 60.26 48.72 83.05 64.31 55.29 73.52 27.66 60.53 22.5 47.85"/><polyline class="cls-1" points="55.29 73.52 61.32 81 66.98 69.64"/><polyline class="cls-1" points="61.32 81 43.36 81 56.04 74.45"/></g></g></svg>