<svg xmlns="http://www.w3.org/2000/svg" viewBox="0 0 95.79 53.63"><defs><style>.cls-1{fill:currentcolor;stroke:currentcolor;stroke-linecap:round;stroke-linejoin:round;stroke-width:2px;}</style></defs><title>Asset 3</title><g id="Layer_2" data-name="Layer 2"><g id="Layer_1-2" data-name="Layer 1"><polyline class="cls-1" points="45.46 16.28 14.2 1 1 4.13 10.73 24.27 16.63 26.7 45.46 19.06"/><polyline class="cls-1" points="16.63 26.7 12.33 32.44 12.85 38.49 21.65 45.72 31.81 52.63 42.75 52.17 45.46 24.75"/><line class="cls-1" x1="1" y1="4.13" x2="45.46" y2="17.41"/><line class="cls-1" x1="21.65" y1="45.72" x2="45.46" y2="20.19"/><polyline class="cls-1" points="50.32 16.28 81.59 1 94.78 4.13 85.06 24.27 79.15 26.7 50.32 19.06"/><polyline class="cls-1" points="79.15 26.7 83.45 32.44 82.93 38.49 74.14 45.72 63.98 52.63 53.04 52.17 50.32 24.75"/><line class="cls-1" x1="94.79" y1="4.13" x2="50.32" y2="17.41"/><line class="cls-1" x1="74.14" y1="45.72" x2="50.32" y2="20.19"/><polygon class="cls-1" points="50.32 25.92 47.89 27.68 45.46 25.92 45.46 16.28 45.98 15.24 49.8 15.24 50.32 16.2 50.32 25.92"/><line class="cls-1" x1="45.46" y1="25.92" x2="47.89" y2="23.25"/><line class="cls-1" x1="50.32" y1="25.92" x2="47.89" y2="23.25"/></g></g></svg>