<svg xmlns="http://www.w3.org/2000/svg" viewBox="0 0 107.46 68.4"><defs><style>.cls-1{fill:currentcolor;stroke:currentcolor;stroke-linecap:round;stroke-linejoin:round;stroke-width:2px;}</style></defs><title>Asset 6</title><g id="Layer_2" data-name="Layer 2"><g id="Layer_1-2" data-name="Layer 1"><polyline class="cls-1" points="41.85 1 53.73 1 53.73 41.85 32.85 62.19 24.75 52.83"/><polygon class="cls-1" points="1 29.61 19.36 67.41 41.85 1 1 29.61"/><polyline class="cls-1" points="65.61 1 53.73 1 53.73 41.85 74.6 62.19 82.7 52.83"/><polygon class="cls-1" points="106.46 29.61 88.1 67.41 65.61 1 106.46 29.61"/><line class="cls-1" x1="32.85" y1="62.19" x2="74.6" y2="62.19"/><path class="cls-1" d="M45,26.14A3.11,3.11,0,1,1,41.85,23,3.12,3.12,0,0,1,45,26.14Z"/><path class="cls-1" d="M62.49,26.14A3.12,3.12,0,1,0,65.6,23,3.12,3.12,0,0,0,62.49,26.14Z"/><polyline class="cls-1" points="60.27 48.22 58.63 51.48 53.73 51.48"/><polyline class="cls-1" points="47.19 48.22 48.82 51.48 53.73 51.48"/><line class="cls-1" x1="1" y1="29.61" x2="27.33" y2="43.86"/><line class="cls-1" x1="106.46" y1="29.61" x2="80.12" y2="43.86"/></g></g></svg>