<svg xmlns="http://www.w3.org/2000/svg" viewBox="0 0 99.92 64.05"><defs><style>.cls-1{fill:currentcolor;stroke:currentcolor;stroke-linecap:round;stroke-linejoin:round;stroke-width:2px;}</style></defs><title>Asset 10</title><g id="Layer_2" data-name="Layer 2"><g id="Layer_1-2" data-name="Layer 1"><polygon class="cls-1" points="28.83 10.99 28.83 41.61 14.18 35.62 14.18 23.37 28.83 10.99"/><polyline class="cls-1" points="14.18 35.62 14.18 49.47 21.84 45.34 21.84 38.75"/><polyline class="cls-1" points="14.18 49.47 1 38.06 1 33.71 8.46 31.49 9.17 33.67 1.62 37.75"/><line class="cls-1" x1="5.56" y1="35.62" x2="14.18" y2="39.62"/><polyline class="cls-1" points="43.34 13.25 28.83 10.99 43.34 1 43.34 13.25 28.83 41.61"/><polyline class="cls-1" points="39.22 21.31 51.47 32.83 39.22 63.05 30.96 63.05 32.69 41.61 51.47 32.83"/><line class="cls-1" x1="32.69" y1="41.61" x2="28.83" y2="39.62"/><polyline class="cls-1" points="43.34 7.66 73.97 7.66 84.89 23.26 84.89 45.98 62.25 54.53 45.37 47.88"/><line class="cls-1" x1="62.25" y1="54.53" x2="62.25" y2="7.66"/><polyline class="cls-1" points="84.89 45.98 80.36 63.05 72.28 63.05 72.28 50.74"/><polyline class="cls-1" points="84.89 23.26 98.92 29.76 84.89 29.76"/></g></g></svg>