<svg xmlns="http://www.w3.org/2000/svg" viewBox="0 0 68.9 72.6"><defs><style>.cls-1{fill:currentcolor;stroke:currentcolor;stroke-linecap:round;stroke-linejoin:round;stroke-width:2px;}</style></defs><title>Asset 11</title><g id="Layer_2" data-name="Layer 2"><g id="Layer_1-2" data-name="Layer 1"><polyline class="cls-1" points="1 36.3 1 31.43 21.4 10.51 28.83 10.51 55.28 36.3"/><polyline class="cls-1" points="55.28 36.3 28.83 62.09 21.4 62.09 1 41.17 1 36.3"/><polyline class="cls-1" points="21.4 10.51 30.91 1 60.64 1 55.28 10.51 28.83 10.51"/><line class="cls-1" x1="36.44" y1="10.51" x2="38.55" y2="19.98"/><polyline class="cls-1" points="42.06 23.4 48.29 17.17 67.9 17.17 55.28 36.3 48.29 17.17"/><polyline class="cls-1" points="21.4 62.09 30.91 71.6 60.64 71.6 55.28 62.09 28.83 62.09"/><line class="cls-1" x1="36.44" y1="62.09" x2="38.55" y2="52.62"/><polyline class="cls-1" points="42.06 49.2 48.29 55.43 67.9 55.43 55.28 36.3 48.29 55.43"/></g></g></svg>