<svg xmlns="http://www.w3.org/2000/svg" viewBox="0 0 82 85"><defs><style>.cls-1{fill:currentcolor;stroke:currentcolor;stroke-linecap:round;stroke-linejoin:round;stroke-width:2px;}</style></defs><title>Asset 12</title><g id="Layer_2" data-name="Layer 2"><g id="Layer_1-2" data-name="Layer 1"><polygon class="cls-1" points="26.75 1 26.75 47.25 55.25 47.25 26.75 1"/><polyline class="cls-1" points="26.75 24.13 7.25 12.75 26.75 47.25 1 37.75 19.84 35.02"/><polyline class="cls-1" points="30 47.25 52 47.25 55.25 47.25 55.25 24.12 55.25 1 41 24.13"/><polyline class="cls-1" points="55.25 24.13 74.75 12.75 55.25 47.25 81 37.75 62.16 35.02"/><path class="cls-1" d="M41,51.33h0a2.7,2.7,0,0,1-2.7-2.7V47.25h5.4v1.38A2.7,2.7,0,0,1,41,51.33Z"/><line class="cls-1" x1="41" y1="51.33" x2="41" y2="84"/></g></g></svg>