<svg xmlns="http://www.w3.org/2000/svg" viewBox="0 0 101.03 74.05"><defs><style>.cls-1{fill:currentcolor;stroke:currentcolor;stroke-linecap:round;stroke-linejoin:round;stroke-width:2px;}</style></defs><title>Asset 2</title><g id="Layer_2" data-name="Layer 2"><g id="Layer_1-2" data-name="Layer 1"><polygon class="cls-1" points="1 15.83 2.38 18.79 12.32 13.26 24.9 46.91 31.82 43.09 43.01 54.68 47.62 66.93 35.3 73.05 50.45 73.05 56.11 63.7 60.51 66.8 100.03 66.8 63.42 58.5 62.43 53.89 49.66 23.01 31.09 20.9 13.86 4.31 6.89 1 10.91 6.96 1 15.83"/><line class="cls-1" x1="50.45" y1="73.05" x2="47.62" y2="66.93"/><polyline class="cls-1" points="54.76 35.34 56.08 42.83 56.11 63.7"/><polyline class="cls-1" points="100.03 66.8 60.23 61.59 56.11 52.51"/><line class="cls-1" x1="60.23" y1="61.59" x2="63.42" y2="58.5"/><polyline class="cls-1" points="43.01 54.68 36.23 36.05 49.66 23.01"/><polyline class="cls-1" points="31.09 20.9 23.23 34.97 31.82 43.09"/><polyline class="cls-1" points="10.91 6.96 13.08 9.97 12.32 13.26 20.57 15.97"/><line class="cls-1" x1="19.73" y1="9.97" x2="24.9" y2="46.91"/></g></g></svg>