<svg xmlns="http://www.w3.org/2000/svg" viewBox="0 0 82.58 87.38"><defs><style>.cls-1{fill:currentcolor;stroke:currentcolor;stroke-linecap:round;stroke-linejoin:round;stroke-width:2px;}</style></defs><title>Asset 7</title><g id="Layer_2" data-name="Layer 2"><g id="Layer_1-2" data-name="Layer 1"><polyline class="cls-1" points="11.76 1 17.73 3.83 34.49 26.95"/><polyline class="cls-1" points="30.03 42.46 33.51 49.96 43.84 47.01"/><polyline class="cls-1" points="13.36 4.81 1 4.81 3.46 2.35 11.76 1 30.03 42.46 27.94 33.72 46.03 15.03 56.12 22.9 27.94 33.72 35.08 43.81 81.58 60.3 72.23 33.23 56.12 22.9"/><polyline class="cls-1" points="56.12 22.9 72.35 27.45 78.5 38.03 73.69 37.46"/><polyline class="cls-1" points="48.1 48.43 49.33 81.92 53.41 86.38 55.03 50.88"/><polyline class="cls-1" points="49.33 81.92 33.59 83.43 30.53 86.38 53.41 86.38"/></g></g></svg>