<svg xmlns="http://www.w3.org/2000/svg" viewBox="0 0 102.57 59.48"><defs><style>.cls-1{fill:currentcolor;stroke:currentcolor;stroke-linecap:round;stroke-linejoin:round;stroke-width:2px;}</style></defs><title>Asset 4</title><g id="Layer_2" data-name="Layer 2"><g id="Layer_1-2" data-name="Layer 1"><polygon class="cls-1" points="6.43 22.29 6.22 26.33 1 28.39 2.77 36.18 5.12 40.3 24.73 46.87 30.88 43.16 31.46 58.48 33.74 58.48 89.36 11.77 78.59 1.34 28.43 1 14.97 12.78 1 17.91 6.43 22.29"/><polyline class="cls-1" points="30.88 43.16 38.45 37.52 28.43 1"/><polyline class="cls-1" points="14.97 12.78 24.27 35.5 24.73 46.87"/><line class="cls-1" x1="6.43" y1="22.29" x2="24.27" y2="35.5"/><polyline class="cls-1" points="4.53 27 5.71 30.9 2.77 36.18"/><polyline class="cls-1" points="65.89 31.48 92.73 55.2 98.71 19.77 89.36 11.77"/><polyline class="cls-1" points="83.04 5.64 86.71 1.97 101.57 1.97 98.14 5.4 88.36 5.4 86.03 8.54"/><line class="cls-1" x1="86.71" y1="1.97" x2="88.35" y2="5.4"/><line class="cls-1" x1="54.31" y1="41.2" x2="76.9" y2="41.2"/></g></g></svg>