<svg xmlns="http://www.w3.org/2000/svg" viewBox="0 0 78.67 60.33"><defs><style>.cls-1{fill:currentcolor;stroke:currentcolor;stroke-linecap:round;stroke-linejoin:round;stroke-width:2px;}</style></defs><title>Asset 17</title><g id="Layer_2" data-name="Layer 2"><g id="Layer_1-2" data-name="Layer 1"><polyline class="cls-1" points="39.33 1 19.5 20.83 19.5 43 39.33 43"/><polyline class="cls-1" points="25.17 15.17 14.33 10.67 1 27.17 14.33 23.5 19.5 24.83"/><line class="cls-1" x1="14.33" y1="10.67" x2="14.33" y2="23.5"/><line class="cls-1" x1="25.17" y1="51.33" x2="39.33" y2="51.33"/><polyline class="cls-1" points="19.5 43 29.42 59.33 3.67 57.67 11.33 49.67 23.42 49.67"/><line class="cls-1" x1="29.42" y1="59.33" x2="33.33" y2="51.33"/><polyline class="cls-1" points="39.33 1 59.17 20.83 59.17 43 39.33 43"/><polyline class="cls-1" points="53.5 15.17 64.33 10.67 77.67 27.17 64.33 23.5 59.17 24.83"/><line class="cls-1" x1="64.33" y1="10.67" x2="64.33" y2="23.5"/><line class="cls-1" x1="53.5" y1="51.33" x2="39.33" y2="51.33"/><polyline class="cls-1" points="59.17 43 49.25 59.33 75 57.67 67.33 49.67 55.25 49.67"/><line class="cls-1" x1="49.25" y1="59.33" x2="45.33" y2="51.33"/></g></g></svg>