<svg xmlns="http://www.w3.org/2000/svg" viewBox="0 0 76.43 75.93"><defs><style>.cls-1{fill:currentcolor;stroke:currentcolor;stroke-linecap:round;stroke-linejoin:round;stroke-width:2px;}</style></defs><title>Asset 1</title><g id="Layer_2" data-name="Layer 2"><g id="Layer_1-2" data-name="Layer 1"><polyline class="cls-1" points="38.22 18.97 19.73 18.97 19.73 59.24 38.22 74.94"/><polyline class="cls-1" points="38.22 18.97 56.7 18.97 56.7 59.24 38.22 74.94"/><polyline class="cls-1" points="25.89 18.97 25.89 7.2 34.65 1 38.22 1"/><polyline class="cls-1" points="50.54 18.97 50.54 7.2 41.78 1 38.22 1"/><polyline class="cls-1" points="12.43 32.29 19.73 18.97 1 18.97 12.43 32.29 19.73 32.29"/><polyline class="cls-1" points="12.43 60.27 19.73 46.95 1 46.95 12.43 60.27 19.73 60.27"/><polyline class="cls-1" points="64 32.29 56.7 18.97 75.43 18.97 64 32.29 56.7 32.29"/><polyline class="cls-1" points="64 60.27 56.7 46.95 75.43 46.95 64 60.27 56.7 60.27"/></g></g></svg>