<?xml version="1.0" standalone="no"?>
<!DOCTYPE svg PUBLIC "-//W3C//DTD SVG 20010904//EN"
 "http://www.w3.org/TR/2001/REC-SVG-20010904/DTD/svg10.dtd">
<svg version="1.0" xmlns="http://www.w3.org/2000/svg"
 width="1024.000000pt" height="1024.000000pt" viewBox="0 0 1024.000000 1024.000000"
 preserveAspectRatio="xMidYMid meet">
<metadata>
Created by potrace 1.14, written by Peter Selinger 2001-2017
</metadata>
<g transform="translate(0.000000,1024.000000) scale(0.100000,-0.100000)"
fill="#000000" stroke="none">
<path d="M6587 9504 c-3 -4 -30 -8 -59 -11 -72 -6 -81 -7 -95 -16 -8 -5 -13
-3 -13 3 0 6 -4 9 -8 6 -10 -6 -48 -13 -117 -21 -27 -3 -75 -9 -107 -13 -31
-5 -66 -8 -77 -7 -12 1 -21 -1 -21 -5 0 -3 -10 -6 -22 -6 -20 -1 -68 -6 -173
-19 -28 -4 -84 -11 -180 -22 -22 -2 -60 -6 -85 -8 -25 -2 -45 -4 -45 -5 0 -4
-46 -10 -95 -14 -30 -2 -62 -6 -70 -9 -39 -15 -85 -14 -97 2 -12 14 -12 14 -6
-3 5 -16 2 -18 -20 -14 -15 3 -27 2 -27 -3 0 -4 -8 -7 -17 -7 -25 1 -124 -12
-147 -19 -14 -4 -16 -2 -10 8 6 12 5 12 -8 1 -8 -7 -40 -15 -70 -17 -31 -3
-64 -7 -74 -9 -11 -2 -48 -7 -84 -11 -36 -4 -68 -9 -72 -12 -5 -2 -8 2 -8 9 0
9 -3 9 -8 2 -11 -17 -78 -24 -92 -11 -10 9 -11 9 -5 -2 6 -11 0 -13 -28 -9
-20 2 -33 0 -30 -5 3 -6 -8 -8 -26 -5 -17 2 -31 2 -31 -2 0 -3 -8 -6 -17 -7
-42 -2 -154 -15 -228 -26 -44 -7 -101 -12 -127 -12 -25 0 -44 -3 -42 -7 3 -4
-4 -6 -13 -6 -10 1 -43 -2 -73 -7 -30 -4 -75 -9 -100 -11 -25 -2 -45 -4 -45
-5 0 0 -17 -3 -38 -4 -22 -2 -41 -6 -44 -9 -4 -3 -13 0 -21 7 -13 9 -14 9 -8
0 5 -9 -1 -13 -21 -14 -15 0 -37 -2 -48 -4 -19 -4 -91 -13 -168 -21 -21 -2
-42 -6 -47 -9 -5 -3 -12 -1 -15 5 -5 8 -11 7 -21 -1 -8 -6 -25 -9 -39 -7 -13
3 -22 2 -20 -2 3 -5 -13 -10 -36 -12 -22 -2 -43 0 -46 5 -2 4 -10 4 -17 -2 -6
-5 -38 -12 -70 -15 -32 -4 -62 -8 -66 -11 -5 -3 -11 -1 -15 5 -3 5 -12 10 -18
10 -7 0 -6 -4 3 -10 12 -8 10 -10 -10 -9 -14 1 -40 -1 -59 -5 -19 -4 -54 -8
-78 -10 -24 -2 -47 -6 -50 -10 -3 -3 -14 -1 -24 4 -12 7 -20 6 -24 -1 -4 -6
-14 -8 -22 -5 -8 3 -11 1 -8 -4 3 -6 2 -10 -4 -10 -5 0 -13 5 -16 10 -5 8 -11
8 -19 0 -7 -5 -38 -11 -69 -13 -32 -1 -57 -6 -57 -11 0 -5 -6 -4 -13 3 -8 6
-17 7 -23 2 -5 -5 -33 -12 -62 -15 -28 -3 -67 -8 -85 -11 -17 -2 -54 -7 -82
-10 -27 -2 -61 -7 -75 -10 -14 -2 -52 -7 -85 -9 -33 -3 -60 -6 -60 -6 0 -3
-52 -9 -115 -14 -30 -3 -55 -5 -55 -6 0 -1 -13 -4 -30 -6 -127 -20 -135 -21
-135 -10 0 7 -3 7 -8 -1 -4 -7 -34 -14 -67 -17 -33 -2 -80 -8 -105 -12 -25 -4
-66 -8 -92 -8 -27 -1 -48 -3 -48 -6 0 -7 -56 -13 -112 -14 -21 0 -38 -3 -38
-7 0 -3 -6 -6 -12 -6 -43 -1 -140 -13 -148 -18 -6 -4 -10 0 -10 7 0 10 -2 10
-8 1 -4 -6 -40 -14 -79 -17 -40 -3 -83 -8 -95 -11 -13 -3 -43 -8 -68 -10 -25
-2 -45 -4 -45 -5 0 -1 -17 -4 -38 -6 -21 -3 -36 -1 -33 4 3 5 -1 9 -9 9 -8 0
-13 -5 -12 -11 1 -5 -16 -11 -38 -12 -22 -1 -47 -4 -55 -8 -8 -3 -35 -8 -60
-10 -25 -2 -49 -5 -54 -5 -4 -1 -6 -12 -4 -26 3 -14 1 -28 -4 -31 -7 -4 -6 -9
0 -13 16 -10 24 -101 9 -101 -9 0 -8 -3 1 -9 18 -11 28 -81 12 -81 -7 0 -5 -6
4 -16 18 -18 22 -39 5 -28 -7 4 -6 -3 2 -17 7 -13 13 -25 13 -26 1 -1 -8 -9
-19 -17 -20 -15 -20 -15 3 -9 20 5 22 2 22 -29 0 -19 -6 -40 -12 -47 -11 -10
-10 -11 4 -6 12 5 16 2 14 -12 -2 -10 -1 -22 2 -28 12 -19 10 -65 -1 -65 -9 0
-9 -2 0 -8 7 -4 15 -28 18 -52 4 -32 2 -41 -5 -30 -6 9 -10 10 -10 3 0 -6 5
-15 10 -18 6 -4 8 -11 5 -16 -4 -5 0 -9 7 -9 9 0 9 -3 -2 -10 -8 -5 -10 -10
-3 -10 6 0 10 -13 9 -30 -1 -16 2 -30 7 -30 5 0 7 -18 4 -40 -3 -22 -2 -40 2
-40 12 0 11 -44 -2 -52 -8 -5 -5 -8 8 -8 17 0 17 -2 5 -10 -8 -5 -10 -10 -4
-10 5 0 10 -11 10 -25 0 -14 -4 -25 -9 -25 -5 0 -1 -7 8 -16 13 -14 14 -19 3
-25 -8 -6 -9 -9 -1 -9 6 0 10 -13 9 -30 -1 -16 2 -30 7 -30 5 0 4 -7 -3 -15
-7 -8 -17 -12 -23 -8 -6 3 -7 1 -3 -6 6 -9 11 -9 22 0 13 10 14 7 9 -19 -3
-18 -2 -32 3 -32 10 0 10 -61 -1 -77 -6 -9 -3 -11 10 -6 16 6 17 5 3 -12 -9
-11 -10 -16 -2 -11 8 5 12 -1 12 -21 0 -22 -2 -25 -10 -13 -7 10 -10 11 -10 2
0 -7 6 -15 14 -18 7 -3 12 -17 12 -32 -1 -15 3 -33 8 -39 5 -9 4 -13 -4 -13
-9 0 -9 -4 -2 -12 5 -7 9 -28 7 -45 -1 -18 2 -33 7 -33 5 0 7 -4 3 -9 -3 -6
-14 -8 -25 -6 -12 2 -18 0 -15 -5 3 -5 14 -7 25 -5 15 3 20 -2 20 -18 1 -12 3
-40 6 -62 4 -29 2 -36 -5 -25 -8 11 -11 11 -11 2 0 -7 7 -15 15 -18 21 -8 19
-25 -3 -18 -14 5 -14 4 -3 -4 19 -13 23 -43 9 -59 -8 -10 -7 -12 5 -7 11 4 15
0 13 -13 -2 -10 1 -26 6 -35 6 -13 5 -18 -4 -18 -10 0 -10 -2 1 -9 11 -7 10
-10 -5 -14 -15 -4 -16 -5 -2 -6 9 0 17 -9 17 -18 0 -28 9 -103 19 -155 6 -30
6 -48 0 -48 -5 0 -6 -6 -1 -12 4 -7 9 -22 10 -33 10 -73 16 -135 16 -162 0
-18 5 -33 11 -33 6 0 4 -5 -4 -10 -8 -5 -10 -10 -3 -10 7 0 10 -17 10 -44 -1
-25 2 -42 7 -38 5 3 7 -1 4 -10 -4 -8 -2 -21 2 -28 6 -9 2 -19 -8 -27 -16 -12
-16 -13 1 -7 9 3 17 1 17 -5 0 -6 -6 -11 -12 -11 -9 0 -10 -2 -2 -8 6 -4 15
-32 18 -62 5 -39 4 -51 -3 -40 -8 11 -11 12 -11 2 0 -7 -4 -11 -9 -7 -5 3 -12
1 -15 -4 -3 -4 2 -8 12 -8 42 0 48 -3 32 -13 -9 -6 -10 -10 -3 -10 6 0 12 -12
11 -27 0 -16 3 -43 6 -61 4 -18 1 -42 -5 -55 -11 -19 -10 -20 2 -10 13 10 16
6 19 -30 2 -23 4 -59 4 -79 0 -21 3 -38 7 -38 4 0 6 -8 5 -17 -2 -10 0 -32 5
-50 5 -24 4 -31 -5 -26 -6 4 -6 0 2 -9 10 -13 10 -17 0 -21 -11 -4 -10 -6 0
-6 7 -1 10 -5 7 -11 -3 -5 -2 -10 2 -10 5 0 9 -9 10 -20 1 -11 -2 -18 -8 -15
-5 4 -9 2 -9 -4 0 -5 4 -11 9 -13 14 -5 20 -86 7 -92 -7 -3 -6 -5 2 -5 7 -1
10 -5 7 -11 -3 -5 -2 -10 3 -10 6 0 9 -24 9 -54 -1 -30 1 -52 6 -49 4 2 7 -1
7 -6 0 -6 -6 -11 -12 -11 -9 0 -10 -3 -2 -8 17 -11 27 -62 12 -62 -9 0 -10 -2
-2 -8 11 -6 17 -38 30 -152 3 -25 7 -60 9 -78 3 -26 1 -33 -9 -29 -15 6 -16
-17 -1 -30 4 -4 5 -2 1 5 -4 7 -2 12 6 12 8 0 14 -15 15 -40 3 -42 -9 -52 -27
-22 -8 11 -10 12 -7 2 2 -8 14 -21 28 -27 21 -11 19 -18 -4 -14 -5 1 -6 -3 -2
-9 3 -6 11 -8 16 -5 5 4 9 -2 10 -12 0 -10 3 -45 6 -78 3 -33 6 -79 6 -102 0
-24 5 -43 10 -43 6 0 8 -3 4 -6 -3 -3 -2 -17 3 -30 8 -20 6 -24 -8 -24 -14 0
-14 -2 -3 -9 15 -10 24 -51 25 -124 1 -26 5 -47 10 -47 5 0 7 -3 4 -6 -4 -3
-2 -19 2 -35 6 -20 5 -29 -3 -29 -9 0 -9 -2 -1 -8 14 -9 15 -43 2 -59 -6 -8
-5 -18 2 -30 10 -16 10 -15 5 5 -4 12 -2 22 3 22 13 0 11 -63 -3 -72 -6 -5 -1
-8 10 -8 17 0 17 -2 5 -10 -10 -6 -11 -10 -3 -10 7 0 13 -10 12 -22 0 -13 3
-43 7 -67 5 -30 4 -42 -3 -38 -6 4 -13 1 -16 -7 -4 -10 0 -12 16 -8 20 5 21 4
7 -13 -9 -11 -10 -16 -3 -11 9 5 13 0 13 -17 0 -21 -4 -24 -30 -22 -17 1 -28
0 -25 -4 4 -3 15 -7 26 -7 41 -3 42 -3 30 -17 -6 -8 -7 -17 -2 -23 13 -13 17
-66 7 -83 -7 -10 -5 -12 4 -6 10 6 12 3 8 -13 -4 -13 -1 -22 5 -23 7 0 3 -4
-8 -9 -19 -8 -19 -9 -1 -9 11 -1 17 -4 13 -7 -3 -3 -2 -17 3 -29 6 -16 5 -25
-3 -29 -9 -3 -8 -7 2 -14 11 -8 11 -10 0 -15 -10 -4 -10 -6 -1 -6 16 -1 16
-28 0 -34 -9 -4 -7 -6 3 -6 11 -1 15 -10 14 -28 -1 -16 2 -40 6 -54 4 -17 2
-32 -4 -39 -9 -10 -9 -11 -1 -7 7 4 13 -5 16 -24 3 -20 1 -28 -7 -25 -6 2 -12
-2 -12 -9 0 -7 6 -11 13 -8 8 3 11 -5 10 -26 -1 -17 1 -31 5 -31 4 0 8 -24 9
-52 2 -74 2 -78 11 -78 5 0 6 -7 3 -15 -6 -14 -8 -13 -19 1 -10 14 -13 15 -20
3 -5 -8 -5 -11 -1 -7 4 3 15 -1 25 -11 19 -19 26 -65 8 -55 -7 3 -5 0 3 -8 9
-8 15 -29 15 -53 -1 -22 4 -43 9 -47 6 -4 4 -13 -5 -24 -8 -11 -9 -15 -2 -10
9 5 13 0 13 -16 0 -55 5 -98 11 -98 4 0 6 -18 5 -40 -1 -22 1 -40 6 -40 4 0 8
-5 8 -11 0 -5 -4 -7 -10 -4 -5 3 -4 -11 4 -32 7 -21 12 -59 12 -85 -1 -25 2
-44 6 -42 4 3 6 -5 5 -16 -1 -11 -6 -20 -12 -20 -5 0 -4 -4 4 -9 8 -5 14 -28
15 -55 0 -25 4 -46 7 -46 3 0 5 -15 4 -32 -2 -18 3 -39 9 -47 9 -12 7 -13 -9
-8 -17 6 -18 5 -5 -5 19 -15 25 -68 8 -68 -6 0 -8 -3 -5 -7 4 -3 -1 -16 -10
-27 -14 -16 -12 -15 9 3 24 21 27 22 26 5 -1 -36 11 -135 18 -146 5 -7 2 -9
-7 -6 -10 4 -15 -1 -15 -12 0 -10 6 -16 13 -13 20 8 16 -34 -5 -47 -14 -9 -13
-10 8 -4 23 6 24 6 10 -11 -8 -11 -10 -16 -4 -12 8 4 12 -3 12 -21 1 -15 5
-48 10 -74 6 -31 5 -51 -2 -58 -7 -7 -7 -10 0 -10 6 0 11 -6 12 -12 0 -7 3
-23 6 -36 3 -12 1 -20 -3 -17 -5 3 -11 -2 -14 -10 -4 -10 -1 -12 10 -8 13 5
15 1 10 -25 -5 -22 -3 -32 6 -32 8 0 7 -4 -3 -10 -10 -6 -11 -10 -2 -10 17 0
15 -20 -6 -44 -15 -19 -15 -19 0 -7 15 11 18 10 22 -11 3 -12 5 -31 6 -40 0
-10 2 -36 3 -58 1 -22 4 -40 7 -40 3 0 6 -9 6 -20 0 -11 -5 -20 -11 -20 -6 0
-6 -3 1 -8 16 -11 24 -50 10 -56 -7 -3 -7 -5 2 -5 6 -1 12 -10 12 -22 0 -12
-4 -17 -11 -13 -6 3 -4 -5 6 -19 15 -24 15 -26 -2 -37 -16 -10 -16 -11 0 -6
11 4 17 0 17 -10 0 -10 -6 -14 -15 -10 -8 3 -14 0 -12 -7 1 -7 -4 -11 -11 -9
-8 1 -11 -2 -7 -9 5 -8 10 -8 18 0 20 20 34 11 35 -21 1 -39 9 -122 16 -158 5
-29 17 -131 21 -175 1 -16 5 -41 9 -54 6 -16 4 -26 -5 -32 -11 -7 -11 -9 -1
-9 7 0 10 -5 7 -10 -3 -6 -2 -10 4 -10 11 0 9 -18 -3 -40 -5 -8 -6 -12 -1 -8
4 4 16 3 26 -2 10 -6 20 -6 23 -2 3 5 27 8 55 7 28 -1 48 1 46 4 -2 4 13 6 33
6 21 -1 42 1 47 4 10 6 20 7 101 14 23 2 46 7 53 11 6 4 11 3 11 -3 0 -5 -4
-13 -10 -16 -5 -3 -15 -16 -21 -28 -6 -12 4 -5 22 15 28 31 42 38 74 40 22 1
45 5 52 10 13 10 27 -7 18 -22 -3 -6 1 -7 9 -4 9 3 15 9 14 12 -2 20 4 19 27
-3 13 -14 30 -25 37 -25 7 1 3 6 -10 13 -12 7 -19 17 -15 22 4 4 2 5 -4 1 -7
-4 -13 -3 -13 2 0 5 12 10 26 10 18 0 22 -3 13 -9 -11 -7 -11 -9 -1 -9 7 0 15
7 19 16 5 13 9 12 29 -7 18 -17 21 -25 12 -31 -10 -6 -10 -8 -1 -8 17 0 29 23
15 28 -7 2 -9 9 -6 14 4 6 2 8 -4 4 -6 -3 -13 -2 -17 4 -3 5 2 10 13 10 10 0
24 -10 30 -22 11 -22 11 -22 7 5 -3 19 1 27 12 27 9 0 13 -6 10 -13 -3 -8 -1
-20 4 -28 6 -10 9 -11 9 -1 0 7 10 17 23 23 l22 10 -22 -5 c-13 -2 -23 -1 -23
4 0 4 13 10 29 12 17 2 28 1 25 -4 -3 -4 0 -8 5 -8 6 0 11 4 11 8 0 5 6 9 13
9 6 1 33 4 59 8 39 5 48 3 48 -9 0 -8 4 -18 10 -21 6 -4 9 4 7 17 -2 20 2 23
31 20 17 -1 32 1 32 6 0 4 19 9 43 10 23 2 56 4 72 5 17 1 34 7 38 12 5 6 6 1
2 -10 -12 -37 -14 -56 -4 -50 5 4 7 10 4 15 -3 4 4 19 16 31 15 18 19 19 15 7
-3 -10 -1 -18 4 -18 6 0 10 8 10 17 0 15 1 15 13 -1 12 -17 14 -17 28 1 13 16
13 17 -3 4 -12 -9 -18 -10 -18 -2 0 6 3 11 8 12 4 1 23 2 42 4 20 2 51 5 69 8
25 4 31 2 27 -8 -3 -9 0 -12 9 -8 8 3 12 10 8 16 -3 6 -1 7 5 3 7 -4 12 -4 12
1 0 4 13 8 30 8 16 1 30 -3 30 -7 0 -4 5 -8 11 -8 5 0 7 5 3 12 -5 8 -2 9 9 5
10 -3 17 -2 17 3 0 5 8 9 18 9 9 0 41 2 70 4 38 4 52 1 49 -7 -3 -7 5 -13 16
-14 12 0 17 2 12 6 -22 15 -12 28 23 29 52 2 97 9 113 17 8 4 6 1 -3 -7 -16
-12 -14 -14 13 -14 16 0 25 4 18 7 -15 10 0 17 31 16 14 -1 29 4 33 9 5 6 7 3
3 -8 -3 -9 -1 -17 4 -17 6 0 10 6 10 13 0 17 42 16 66 -3 17 -14 18 -14 6 2
-12 15 -10 18 22 23 19 4 39 4 45 0 6 -3 11 -1 11 6 0 9 3 9 14 0 12 -10 20
-9 39 4 20 13 26 13 30 3 4 -10 7 -10 14 -1 5 7 33 14 63 18 139 14 131 14
125 -9 -4 -13 1 -10 11 9 11 19 19 25 22 17 2 -8 -1 -19 -7 -25 -6 -6 -11 -15
-11 -21 0 -5 7 -1 16 10 14 18 15 18 8 -6 -5 -19 0 -15 21 15 34 50 32 48 39
36 3 -5 -2 -17 -11 -27 -13 -13 -14 -16 -3 -12 8 2 20 13 25 24 6 10 19 20 30
21 11 1 41 4 66 7 41 4 48 3 52 -15 4 -15 2 -19 -9 -15 -8 3 -13 2 -9 -3 3 -5
2 -11 -2 -14 -5 -2 -1 -2 7 1 8 2 21 5 27 5 8 0 9 5 4 11 -13 17 -9 43 6 43 8
0 11 -7 7 -19 -7 -23 9 -24 27 -1 10 11 10 14 2 9 -7 -4 -13 -3 -13 2 0 6 7
13 16 16 8 3 12 2 9 -4 -3 -6 -2 -10 3 -10 6 0 8 -8 5 -19 -3 -10 0 -22 6 -25
7 -5 8 -1 5 9 -4 8 0 23 7 32 12 14 12 16 0 8 -10 -5 -12 -4 -7 3 4 7 14 12
22 12 8 0 12 -4 9 -10 -11 -17 7 -11 21 8 17 22 19 -1 2 -28 -10 -16 -10 -22
1 -32 11 -11 13 -11 6 0 -8 15 13 62 27 62 5 0 6 -5 2 -12 -4 -6 -3 -8 4 -4 5
3 13 0 16 -6 3 -7 3 -3 0 10 -3 12 -1 22 4 22 16 0 20 -23 9 -45 l-10 -20 20
20 c13 13 16 22 9 27 -16 11 -4 17 45 22 24 2 54 7 66 10 30 7 40 -22 10 -33
-25 -10 -32 -7 -22 8 3 6 11 8 17 5 7 -5 8 -2 3 6 -6 10 -12 8 -25 -8 -10 -12
-20 -18 -24 -15 -3 4 -6 1 -6 -5 0 -8 11 -10 31 -7 32 6 83 35 61 35 -6 0 -12
5 -12 11 0 5 4 8 9 5 5 -4 12 0 14 6 3 8 6 6 6 -4 1 -11 8 -18 19 -17 10 0 12
3 5 6 -22 8 -14 19 15 18 15 -1 33 3 40 8 8 6 12 5 12 -2 0 -6 -5 -11 -11 -11
-5 0 -7 -5 -3 -11 5 -8 11 -5 18 7 14 25 57 25 81 1 12 -13 21 -15 28 -8 8 8
7 15 -2 24 -10 10 -11 8 -5 -8 7 -18 6 -18 -9 -6 -24 19 -21 26 13 27 16 1 28
-1 26 -5 -8 -13 12 -35 36 -38 17 -2 19 -1 8 6 -8 5 -17 8 -21 5 -4 -2 -9 3
-13 11 -12 33 61 43 82 10 12 -19 13 -19 8 6 -6 26 -5 26 49 24 30 -1 52 2 49
7 -3 4 0 8 5 8 6 0 11 -4 11 -10 0 -5 5 -10 11 -10 5 0 7 4 4 10 -10 17 4 11
25 -10 12 -12 26 -18 32 -14 7 5 9 2 6 -8 -4 -8 0 -15 7 -15 10 0 11 5 4 19
-5 10 -13 17 -17 17 -21 -4 -32 3 -31 19 0 10 3 12 6 5 2 -7 9 -13 14 -13 6 0
8 4 5 8 -3 5 7 9 22 9 15 1 37 4 50 7 12 2 22 1 22 -5 0 -5 7 -9 15 -9 8 0 15
-5 15 -12 0 -6 3 -8 7 -4 5 4 -1 14 -11 22 -22 15 -22 15 59 17 17 0 33 6 37
11 5 7 8 4 8 -6 0 -10 6 -18 13 -18 6 -1 1 -7 -13 -14 l-25 -14 27 1 c14 1 26
7 25 12 -1 6 6 9 16 7 9 -2 17 2 17 8 0 6 -4 8 -10 5 -5 -3 -10 0 -10 7 0 10
-2 10 -9 -1 -6 -9 -11 -10 -15 -2 -4 6 -6 12 -4 12 6 3 45 9 88 13 25 3 61 8
80 11 30 4 38 1 54 -23 16 -24 16 -17 1 21 -3 7 2 13 12 13 10 1 44 4 76 7 36
4 57 2 57 -4 0 -6 -4 -7 -10 -4 -6 4 -7 -1 -3 -11 5 -14 8 -12 20 10 14 26 37
34 48 16 3 -6 12 -10 18 -10 7 0 6 4 -3 10 -12 8 -12 10 5 10 11 1 37 3 59 6
27 4 36 3 32 -5 -4 -6 -11 -9 -16 -6 -5 3 -12 0 -16 -6 -4 -8 -9 -7 -15 2 -5
8 -9 9 -9 3 0 -24 25 -42 45 -33 18 9 18 9 -3 5 -15 -3 -22 0 -19 7 2 7 9 12
16 12 7 0 18 7 24 15 14 18 70 23 64 6 -2 -6 -13 -10 -23 -8 -17 2 -17 1 -2
-8 10 -6 15 -19 13 -30 -2 -11 0 -18 5 -15 5 3 7 15 5 26 -2 11 2 22 10 25 8
3 11 12 7 22 -3 9 14 0 39 -21 29 -23 46 -31 46 -22 0 8 -4 12 -9 9 -4 -3 -8
0 -8 5 0 6 -7 11 -16 11 -14 0 -14 3 -3 16 11 14 13 14 21 0 10 -17 43 -22 53
-7 3 5 0 13 -6 17 -8 4 -9 3 -5 -4 5 -8 0 -12 -13 -12 -13 0 -21 6 -21 18 0
14 2 15 10 2 7 -12 10 -12 10 -1 0 8 6 11 16 7 9 -4 24 -1 32 6 12 10 14 10 8
1 -4 -7 -3 -13 3 -13 5 0 12 -8 15 -18 4 -14 5 -14 4 3 -1 36 2 38 23 14 20
-24 20 -24 9 -2 -7 16 -7 23 0 23 5 0 10 -6 10 -12 0 -9 3 -9 9 1 5 8 28 16
51 18 23 2 39 0 36 -5 -3 -5 4 -16 15 -26 13 -11 19 -12 18 -4 -3 28 1 48 12
48 5 0 7 -6 3 -13 -6 -9 -4 -9 8 1 15 12 80 24 146 25 17 1 32 4 32 7 0 3 17
7 38 7 20 1 56 4 79 6 29 3 43 0 47 -9 6 -16 42 -19 51 -5 3 5 0 13 -6 17 -8
4 -9 3 -5 -4 5 -8 0 -12 -13 -12 -13 0 -21 6 -21 18 0 14 2 15 10 2 5 -8 10
-10 10 -4 0 7 10 12 23 11 12 0 34 2 49 6 18 4 28 1 32 -9 7 -17 -5 -18 -23
-1 -11 9 -12 9 -7 0 5 -9 2 -11 -11 -7 -15 6 -15 4 2 -9 20 -16 46 -9 61 15 4
7 3 8 -4 4 -7 -4 -12 -2 -12 3 0 6 8 12 18 12 61 4 80 7 91 13 6 4 11 2 11 -4
0 -7 6 -8 19 0 27 14 41 13 41 -4 0 -8 5 -18 10 -21 7 -4 9 3 5 22 -3 15 -2
22 1 16 4 -9 11 -10 22 -4 10 5 39 12 66 15 39 4 52 1 63 -12 13 -16 14 -15 8
4 -5 19 -2 21 30 19 20 -1 39 3 42 8 3 5 14 -4 24 -19 10 -15 15 -32 12 -37
-3 -6 -1 -7 6 -3 9 6 8 13 -3 31 -9 13 -12 26 -7 30 5 3 12 -4 16 -15 6 -20
25 -19 25 1 0 6 -4 7 -10 4 -6 -3 -10 -2 -10 3 0 5 11 12 25 14 13 3 22 1 19
-3 -3 -5 0 -9 5 -9 6 0 11 4 11 8 0 5 6 9 13 10 6 0 30 3 52 6 29 3 35 2 22
-5 -9 -6 -17 -17 -17 -25 0 -8 -4 -13 -9 -9 -6 3 -15 -5 -21 -17 -10 -21 -10
-21 3 -6 8 10 17 15 20 11 4 -3 10 3 14 13 13 35 34 43 57 23 11 -11 25 -19
30 -18 6 0 1 7 -11 16 -30 20 -29 28 5 30 15 1 49 4 76 6 42 4 52 2 67 -17 13
-16 20 -18 29 -10 8 8 9 14 1 18 -30 19 -3 27 96 30 29 0 53 4 53 8 0 4 10 5
22 3 12 -3 28 1 37 8 12 9 13 9 7 0 -4 -7 -2 -13 3 -13 6 0 11 5 11 10 0 6 6
5 14 -2 8 -7 12 -16 10 -20 -2 -3 4 -5 13 -4 9 2 19 9 21 17 3 11 2 11 -6 1
-7 -10 -11 -10 -21 2 -10 12 -7 14 18 12 17 -1 32 1 33 5 2 3 24 9 50 12 36 4
48 2 52 -10 3 -8 3 -20 -1 -25 -4 -7 -1 -8 6 -3 7 4 11 16 8 26 -4 14 0 19 14
19 10 0 20 0 22 -1 1 0 14 4 30 10 18 7 27 7 27 0 0 -6 6 -6 18 0 20 11 47 9
59 -4 4 -4 -3 -5 -15 -2 -27 6 -52 -1 -52 -15 0 -5 6 -6 13 -1 6 4 23 8 37 8
16 0 25 5 24 15 -1 9 6 16 15 16 36 1 177 15 191 19 8 2 28 6 43 9 25 4 27 2
21 -16 -4 -14 -2 -18 5 -14 6 4 11 13 11 20 0 8 9 16 20 19 11 3 18 2 16 -2
-7 -10 26 -28 47 -25 9 1 17 -2 17 -7 0 -5 5 -9 11 -9 8 0 9 4 0 13 -6 8 -7
18 -3 23 4 4 0 3 -10 -4 -13 -10 -17 -10 -21 0 -4 11 -6 10 -6 0 -1 -7 -5 -10
-11 -7 -16 10 -11 23 8 20 9 -1 25 2 36 7 13 7 16 7 12 -1 -4 -6 -2 -11 4 -11
6 0 8 -5 5 -10 -3 -6 0 -13 9 -16 8 -3 12 -13 9 -22 -4 -15 -3 -15 6 -2 8 11
7 18 -3 25 -11 8 -11 14 -2 25 13 18 36 24 36 10 0 -5 -4 -10 -10 -10 -5 0
-10 -5 -10 -12 0 -6 8 -3 20 7 11 10 17 22 13 28 -3 6 -1 7 6 3 6 -4 10 -15 9
-23 -2 -9 3 -18 10 -20 9 -4 11 2 7 20 -5 19 -2 25 14 30 12 3 21 1 21 -4 0
-6 8 -5 20 1 11 6 20 8 20 5 0 -3 -9 -14 -20 -25 -11 -11 -20 -26 -20 -32 1
-7 6 -3 13 10 7 12 16 20 19 17 3 -4 9 2 12 13 7 22 41 23 41 2 0 -23 23 -22
35 2 10 21 10 21 -3 6 -17 -22 -24 -23 -24 -3 0 8 5 16 11 16 6 1 21 3 32 4
12 1 27 6 34 10 9 5 11 4 6 -3 -4 -7 -2 -12 5 -12 7 0 5 -8 -6 -20 -10 -11
-13 -20 -8 -20 6 0 13 7 17 15 3 8 11 15 17 15 8 0 8 -4 -1 -15 -11 -13 -10
-14 4 -9 20 8 21 23 1 30 -26 10 -7 21 35 20 22 -1 40 1 40 5 0 12 36 17 54 7
11 -6 16 -5 16 3 0 7 3 9 6 6 4 -4 -1 -19 -11 -34 -15 -23 -16 -26 -2 -15 9 8
19 22 22 32 4 13 14 17 35 16 17 -1 30 3 31 8 1 6 4 0 8 -13 7 -25 46 -37 58
-18 3 6 1 7 -5 3 -16 -10 -15 5 2 26 18 24 29 23 21 -2 -4 -12 -2 -20 5 -20 6
0 8 5 5 10 -3 6 -1 10 5 10 6 0 9 4 6 8 -8 13 37 12 53 -1 11 -9 13 -9 8 0 -9
15 26 27 54 18 16 -5 19 -4 14 5 -6 9 0 11 23 8 22 -3 29 -1 23 6 -5 6 -12 33
-15 59 -5 38 -4 47 6 42 7 -4 4 1 -6 9 -15 12 -16 16 -5 16 10 0 11 2 2 8 -7
5 -11 24 -10 45 2 20 0 37 -4 37 -4 0 -7 12 -5 28 1 15 -2 33 -7 40 -7 8 -4
19 9 35 16 18 16 19 2 8 -21 -15 -24 -2 -5 18 8 9 8 12 0 7 -7 -4 -14 5 -18
23 -12 55 -14 92 -5 86 5 -3 12 0 16 6 4 7 3 9 -4 5 -6 -3 -13 -3 -15 1 -8 13
-20 113 -21 170 -1 28 -4 49 -7 47 -3 -2 -6 9 -7 24 0 15 -3 36 -5 47 -2 11 0
26 6 33 6 7 6 12 1 11 -21 -4 -28 2 -14 12 10 7 11 12 3 15 -8 4 -9 14 -3 35
6 21 5 27 -2 23 -7 -5 -9 -1 -5 9 3 10 3 17 -1 17 -4 0 -9 17 -10 38 -2 45
-11 110 -19 136 -3 11 -1 16 5 12 6 -3 14 -1 18 5 4 7 3 9 -4 5 -15 -9 -19 1
-26 64 -5 39 -4 51 3 40 8 -11 11 -11 11 -2 0 7 -7 15 -16 19 -13 5 -13 7 -2
14 10 7 10 9 1 9 -7 0 -13 7 -13 16 0 9 5 12 13 8 6 -4 9 -4 5 1 -4 4 -2 15 5
24 11 14 10 14 -5 2 -19 -14 -19 -14 -22 62 0 15 -5 27 -11 27 -5 0 -3 5 5 10
8 5 10 10 5 10 -15 0 -17 41 -3 57 8 10 7 12 -3 8 -9 -3 -15 3 -16 17 -1 13
-3 36 -5 53 -2 18 2 30 9 30 6 0 15 3 19 7 3 4 -3 5 -16 3 -20 -4 -22 -1 -18
35 2 21 0 36 -5 33 -5 -3 -7 5 -5 18 2 16 9 24 20 23 10 -1 15 3 12 8 -3 5
-12 7 -19 4 -13 -5 -22 22 -23 69 -1 11 -5 41 -10 67 -10 50 -6 64 13 48 8 -7
12 -5 12 4 0 8 -8 13 -19 11 -10 -2 -18 0 -18 6 0 5 5 9 11 9 6 0 3 7 -5 16
-23 22 -20 37 3 24 15 -7 22 -7 27 2 4 7 4 10 -1 6 -4 -4 -16 -3 -27 3 -13 7
-17 18 -15 37 3 15 0 33 -5 39 -6 7 -8 30 -6 52 2 22 0 37 -4 35 -5 -3 -8 0
-8 5 0 6 6 11 13 11 8 0 7 4 -3 10 -12 8 -13 13 -2 30 9 16 10 20 0 18 -8 -2
-15 15 -18 45 -5 37 -3 46 7 43 7 -3 13 -1 13 4 0 6 -7 10 -16 10 -11 0 -15 6
-11 20 3 11 1 20 -4 20 -5 0 -9 5 -9 11 0 5 4 8 8 5 4 -2 8 4 8 14 0 10 -4 16
-8 14 -4 -3 -9 12 -10 33 -1 38 -4 63 -8 73 -1 3 -3 16 -6 29 -4 21 -3 22 13
10 17 -13 17 -12 2 6 -9 11 -19 38 -23 60 -5 29 -4 36 3 25 6 -8 11 -10 11 -5
0 6 -4 15 -9 20 -6 6 -13 33 -16 60 -4 28 -9 58 -11 68 -3 9 0 17 6 17 7 0 5
7 -5 16 -12 12 -13 19 -4 30 8 10 8 14 0 14 -6 0 -11 9 -11 21 0 13 4 18 13
13 8 -6 8 -3 -1 9 -14 16 -22 68 -25 159 -1 25 -5 44 -9 41 -5 -2 -8 1 -8 6 0
6 6 11 13 11 8 0 7 4 -3 10 -12 8 -13 13 -2 30 10 16 10 20 0 18 -8 -2 -13 11
-15 36 -1 21 -5 41 -7 44 -3 3 2 11 12 19 16 12 16 13 -2 6 -16 -5 -18 -2 -14
20 3 15 1 27 -4 27 -4 0 -8 12 -7 28 0 29 -6 99 -15 147 -8 44 -18 134 -20
177 0 21 -4 38 -7 38 -8 0 -5 73 4 87 6 9 3 11 -10 6 -16 -6 -17 -5 -3 12 8
10 10 16 3 12 -7 -5 -11 -1 -11 10 1 10 -2 34 -6 53 -5 26 -4 31 3 20 6 -8 11
-10 11 -5 0 6 -4 15 -10 21 -11 11 -25 101 -24 161 0 23 -3 40 -6 38 -4 -3 -7
6 -7 18 0 12 -3 45 -7 72 -15 103 -15 119 -3 134 9 12 9 13 0 7 -7 -4 -13 -4
-14 1 0 4 -2 16 -4 26 -2 9 2 17 8 17 8 0 9 3 1 8 -18 12 -23 39 -11 52 9 10
9 11 0 6 -9 -5 -13 3 -14 26 -2 47 -6 92 -9 101 -7 20 -5 33 4 46 8 11 8 13
-1 7 -13 -7 -15 0 -17 82 -1 17 -4 32 -8 32 -5 0 -8 5 -8 11 0 5 4 8 8 5 5 -3
9 1 9 9 0 8 -4 12 -8 10 -12 -8 -26 138 -14 154 7 11 7 13 -1 8 -7 -4 -14 2
-17 13 -3 11 -1 20 3 20 5 0 4 14 -2 31 -6 16 -8 33 -4 36 3 3 0 13 -7 21 -10
13 -9 14 3 7 12 -6 13 -5 3 6 -21 22 -16 48 8 44 12 -3 18 -1 15 3 -4 4 -12 8
-17 8 -5 1 -13 2 -17 3 -5 0 -9 16 -9 34 -1 54 -10 113 -18 127 -6 10 -4 12 8
7 10 -3 17 -2 17 3 0 6 -6 10 -13 10 -7 0 -14 14 -15 33 -1 17 -5 41 -9 52 -5
18 -4 19 13 5 18 -14 18 -14 3 5 -18 22 -38 142 -42 262 -1 23 -4 40 -7 38 -6
-3 -13 63 -14 128 0 20 -4 37 -8 37 -4 0 -8 7 -8 16 0 16 -47 64 -63 64 -5 0
-5 5 -1 12 4 6 3 8 -3 5 -6 -4 -25 7 -43 23 -18 17 -35 30 -39 30 -3 0 -26 18
-51 40 -25 22 -48 40 -52 40 -4 0 -18 10 -31 23 -13 12 -32 27 -43 33 -10 6
-25 22 -31 35 -8 14 -13 18 -13 9 -1 -11 -6 -8 -20 9 -11 13 -20 20 -20 16 0
-5 -9 2 -19 14 -11 12 -23 23 -28 24 -4 1 -6 6 -5 12 2 5 0 7 -4 3 -9 -10 -66
31 -58 43 3 5 0 8 -8 7 -7 -2 -12 3 -10 10 1 6 -1 11 -5 11 -21 -3 -33 2 -27
13 5 7 3 8 -6 3 -7 -4 -15 -3 -19 2 -3 5 -32 29 -64 53 -43 32 -55 46 -45 52
9 7 7 8 -7 4 -14 -4 -34 7 -65 34 -56 49 -57 50 -100 80 -19 13 -37 27 -40 30
-3 3 -20 16 -38 29 -18 12 -29 27 -25 33 4 8 0 9 -11 5 -10 -4 -19 -1 -22 8
-4 8 -12 15 -20 15 -8 0 -14 3 -14 8 0 4 -21 21 -45 37 -25 17 -43 35 -41 42
3 7 -1 10 -10 6 -7 -3 -14 0 -14 6 0 6 -6 11 -13 11 -7 0 -20 9 -29 19 -12 14
-13 22 -5 32 9 10 8 10 -6 0 -15 -12 -20 -11 -37 4 -11 10 -17 22 -13 28 3 5
1 7 -4 4 -6 -4 -30 7 -53 24 -33 24 -40 33 -29 41 10 7 8 8 -8 3 -14 -4 -23
-2 -23 4 0 6 -6 11 -13 11 -8 0 -21 8 -30 18 -13 15 -14 21 -4 32 10 12 9 12
-5 1 -14 -11 -21 -11 -33 -1 -8 7 -12 17 -8 23 3 5 2 7 -4 4 -14 -9 -55 22
-47 36 4 7 4 9 -1 5 -11 -11 -47 11 -39 24 4 7 3 8 -4 4 -7 -4 -25 7 -42 24
-16 17 -30 28 -30 24 0 -3 -15 7 -32 22 -18 15 -32 30 -30 33 2 3 -7 9 -20 12
-15 3 -22 12 -21 25 1 10 0 13 -3 7 -4 -10 -11 -10 -26 -2 -11 6 -17 13 -14
16 3 3 -8 13 -24 22 -61 34 -152 110 -145 122 4 5 0 6 -7 4 -8 -3 -30 10 -51
28 -20 19 -39 32 -41 29 -3 -3 -8 3 -12 12 -3 9 -12 16 -19 16 -17 0 -47 35
-38 45 5 4 2 5 -5 1 -16 -9 -44 12 -35 27 3 5 2 7 -4 4 -13 -8 -85 41 -78 54
7 10 -8 13 -18 3z m2783 -7734 c0 -4 -7 -13 -15 -20 -12 -10 -15 -9 -15 7 0
11 7 20 15 20 8 0 15 -4 15 -7z m-1635 -228 c-8 -8 -25 10 -25 26 0 13 2 13
14 -4 8 -10 13 -21 11 -22z m-1375 -147 c0 -8 -4 -15 -10 -15 -5 0 -7 7 -4 15
4 8 8 15 10 15 2 0 4 -7 4 -15z m-290 -29 c0 -3 -4 -8 -10 -11 -5 -3 -10 -1
-10 4 0 6 5 11 10 11 6 0 10 -2 10 -4z m-2006 -253 c-5 -5 -12 -12 -16 -18 -4
-6 -8 -2 -8 8 0 9 7 17 17 17 9 0 12 -3 7 -7z"/>
<path d="M6746 9402 c-3 -5 1 -9 9 -9 8 0 12 4 9 9 -3 4 -7 8 -9 8 -2 0 -6 -4
-9 -8z"/>
<path d="M1355 8880 c3 -5 8 -10 11 -10 2 0 4 5 4 10 0 6 -5 10 -11 10 -5 0
-7 -4 -4 -10z"/>
<path d="M7693 8685 c0 -8 4 -12 9 -9 5 3 6 10 3 15 -9 13 -12 11 -12 -6z"/>
<path d="M616 8567 c3 -10 9 -15 12 -12 3 3 0 11 -7 18 -10 9 -11 8 -5 -6z"/>
<path d="M640 8566 c0 -2 8 -10 18 -17 15 -13 16 -12 3 4 -13 16 -21 21 -21
13z"/>
<path d="M630 8516 c0 -2 8 -10 18 -17 15 -13 16 -12 3 4 -13 16 -21 21 -21
13z"/>
<path d="M627 8479 c7 -7 15 -10 18 -7 3 3 -2 9 -12 12 -14 6 -15 5 -6 -5z"/>
<path d="M680 8360 c-13 -8 -12 -10 3 -10 9 0 17 5 17 10 0 12 -1 12 -20 0z"/>
<path d="M690 8260 c0 -5 5 -10 11 -10 5 0 7 5 4 10 -3 6 -8 10 -11 10 -2 0
-4 -4 -4 -10z"/>
<path d="M689 8163 c-13 -16 -12 -17 4 -4 16 13 21 21 13 21 -2 0 -10 -8 -17
-17z"/>
<path d="M696 8038 c3 -5 10 -6 15 -3 13 9 11 12 -6 12 -8 0 -12 -4 -9 -9z"/>
<path d="M715 7939 c-3 -4 2 -6 10 -5 21 3 28 13 10 13 -9 0 -18 -4 -20 -8z"/>
<path d="M747 7759 c7 -7 15 -10 18 -7 3 3 -2 9 -12 12 -14 6 -15 5 -6 -5z"/>
<path d="M740 7726 c0 -2 8 -10 18 -17 15 -13 16 -12 3 4 -13 16 -21 21 -21
13z"/>
<path d="M745 7660 c-3 -6 1 -7 9 -4 18 7 21 14 7 14 -6 0 -13 -4 -16 -10z"/>
<path d="M771 7567 c-8 -10 -7 -14 2 -14 8 0 14 6 14 14 0 7 -1 13 -2 13 -2 0
-8 -6 -14 -13z"/>
<path d="M715 7521 c-3 -5 -2 -12 3 -15 5 -3 9 1 9 9 0 17 -3 19 -12 6z"/>
<path d="M8899 7513 c-13 -16 -12 -17 4 -4 9 7 17 15 17 17 0 8 -8 3 -21 -13z"/>
<path d="M8935 7420 c-3 -5 -1 -10 4 -10 6 0 11 5 11 10 0 6 -2 10 -4 10 -3 0
-8 -4 -11 -10z"/>
<path d="M796 7322 c-3 -5 1 -9 9 -9 8 0 12 4 9 9 -3 4 -7 8 -9 8 -2 0 -6 -4
-9 -8z"/>
<path d="M776 7282 c-2 -4 -1 -14 4 -22 7 -11 9 -9 7 8 -1 24 -3 26 -11 14z"/>
<path d="M8950 7240 c0 -5 5 -10 11 -10 5 0 7 5 4 10 -3 6 -8 10 -11 10 -2 0
-4 -4 -4 -10z"/>
<path d="M795 7161 c-3 -5 -2 -12 3 -15 5 -3 9 1 9 9 0 17 -3 19 -12 6z"/>
<path d="M815 7100 c3 -5 8 -10 11 -10 2 0 4 5 4 10 0 6 -5 10 -11 10 -5 0 -7
-4 -4 -10z"/>
<path d="M787 7079 c7 -7 15 -10 18 -7 3 3 -2 9 -12 12 -14 6 -15 5 -6 -5z"/>
<path d="M850 6980 c0 -5 5 -10 11 -10 5 0 7 5 4 10 -3 6 -8 10 -11 10 -2 0
-4 -4 -4 -10z"/>
<path d="M855 6889 c-4 -6 -5 -12 -2 -15 2 -3 7 2 10 11 7 17 1 20 -8 4z"/>
<path d="M875 6863 c3 -3 0 -11 -5 -18 -7 -8 -5 -12 4 -12 14 0 16 22 3 32 -4
3 -5 2 -2 -2z"/>
<path d="M8996 6833 c-6 -14 -5 -15 5 -6 7 7 10 15 7 18 -3 3 -9 -2 -12 -12z"/>
<path d="M877 6748 c9 -10 17 -18 17 -18 1 0 2 8 2 18 0 10 -8 18 -18 18 -16
0 -16 -2 -1 -18z"/>
<path d="M8992 6724 c-1 -13 0 -24 2 -24 7 0 14 40 7 44 -4 3 -8 -6 -9 -20z"/>
<path d="M856 6693 c-6 -14 -5 -15 5 -6 7 7 10 15 7 18 -3 3 -9 -2 -12 -12z"/>
<path d="M8995 6679 c-3 -4 2 -6 10 -5 21 3 28 13 10 13 -9 0 -18 -4 -20 -8z"/>
<path d="M896 6605 c4 -8 11 -15 16 -15 6 0 5 6 -2 15 -7 8 -14 15 -16 15 -2
0 -1 -7 2 -15z"/>
<path d="M876 6538 c3 -5 10 -6 15 -3 13 9 11 12 -6 12 -8 0 -12 -4 -9 -9z"/>
<path d="M9016 6527 c3 -10 9 -15 12 -12 3 3 0 11 -7 18 -10 9 -11 8 -5 -6z"/>
<path d="M910 6505 c-11 -13 -10 -14 4 -9 9 3 16 10 16 15 0 13 -6 11 -20 -6z"/>
<path d="M865 6440 c-3 -6 1 -7 9 -4 18 7 21 14 7 14 -6 0 -13 -4 -16 -10z"/>
<path d="M916 6421 c-3 -5 2 -15 12 -22 15 -12 16 -12 5 2 -7 9 -10 19 -6 22
3 4 4 7 0 7 -3 0 -8 -4 -11 -9z"/>
<path d="M891 6387 c2 -1 13 -9 24 -17 19 -14 19 -14 6 3 -7 9 -18 17 -24 17
-6 0 -8 -1 -6 -3z"/>
<path d="M9037 6355 c-4 -8 -3 -16 1 -19 4 -3 9 4 9 15 2 23 -3 25 -10 4z"/>
<path d="M914 6328 l-19 -23 23 19 c21 18 27 26 19 26 -2 0 -12 -10 -23 -22z"/>
<path d="M914 6289 c-3 -6 -2 -15 3 -20 5 -5 9 -1 9 11 0 23 -2 24 -12 9z"/>
<path d="M9089 6157 c6 -8 7 -18 3 -22 -4 -5 -1 -5 6 -1 10 6 10 11 1 22 -6 8
-14 14 -16 14 -3 0 0 -6 6 -13z"/>
<path d="M934 6099 c-4 -7 -3 -9 4 -5 6 3 15 -2 21 -11 6 -10 11 -13 11 -7 0
20 -27 37 -36 23z"/>
<path d="M9090 6100 c0 -5 5 -10 11 -10 5 0 7 5 4 10 -3 6 -8 10 -11 10 -2 0
-4 -4 -4 -10z"/>
<path d="M907 6059 c7 -7 15 -10 18 -7 3 3 -2 9 -12 12 -14 6 -15 5 -6 -5z"/>
<path d="M973 6018 c1 -7 -4 -12 -11 -10 -8 1 -11 -2 -7 -8 5 -8 11 -8 21 1 7
6 11 15 8 20 -8 13 -14 11 -11 -3z"/>
<path d="M9115 5929 c-4 -6 -5 -12 -2 -15 2 -3 7 2 10 11 7 17 1 20 -8 4z"/>
<path d="M990 5900 c0 -5 5 -10 11 -10 5 0 7 5 4 10 -3 6 -8 10 -11 10 -2 0
-4 -4 -4 -10z"/>
<path d="M9114 5886 c1 -8 5 -18 8 -22 4 -3 5 1 4 10 -1 8 -5 18 -8 22 -4 3
-5 -1 -4 -10z"/>
<path d="M990 5865 c-11 -13 -10 -14 4 -9 9 3 16 10 16 15 0 13 -6 11 -20 -6z"/>
<path d="M993 5818 c1 -7 -4 -12 -11 -10 -8 1 -11 -2 -7 -8 5 -8 11 -8 21 1 7
6 11 15 8 20 -8 13 -14 11 -11 -3z"/>
<path d="M996 5781 c-3 -5 2 -15 12 -22 15 -12 16 -12 5 2 -7 9 -10 19 -6 22
3 4 4 7 0 7 -3 0 -8 -4 -11 -9z"/>
<path d="M9130 5700 c0 -5 5 -10 11 -10 5 0 7 5 4 10 -3 6 -8 10 -11 10 -2 0
-4 -4 -4 -10z"/>
<path d="M9153 5635 c0 -8 4 -12 9 -9 5 3 6 10 3 15 -9 13 -12 11 -12 -6z"/>
<path d="M1010 5623 c0 -6 8 -17 18 -24 16 -13 16 -13 2 6 -8 11 -16 22 -17
24 -2 2 -3 0 -3 -6z"/>
<path d="M9175 5509 c-4 -6 -5 -12 -2 -15 2 -3 7 2 10 11 7 17 1 20 -8 4z"/>
<path d="M1028 5478 c5 -5 16 -8 23 -6 8 3 3 7 -10 11 -17 4 -21 3 -13 -5z"/>
<path d="M9170 5460 c0 -5 5 -10 11 -10 5 0 7 5 4 10 -3 6 -8 10 -11 10 -2 0
-4 -4 -4 -10z"/>
<path d="M1016 5418 c3 -5 10 -6 15 -3 13 9 11 12 -6 12 -8 0 -12 -4 -9 -9z"/>
<path d="M9156 5398 c3 -5 10 -6 15 -3 13 9 11 12 -6 12 -8 0 -12 -4 -9 -9z"/>
<path d="M1016 5387 c3 -10 9 -15 12 -12 3 3 0 11 -7 18 -10 9 -11 8 -5 -6z"/>
<path d="M9176 5362 c-3 -5 1 -9 9 -9 8 0 12 4 9 9 -3 4 -7 8 -9 8 -2 0 -6 -4
-9 -8z"/>
<path d="M1050 5301 c0 -6 4 -13 10 -16 6 -3 7 1 4 9 -7 18 -14 21 -14 7z"/>
<path d="M9170 5296 c0 -2 8 -10 18 -17 15 -13 16 -12 3 4 -13 16 -21 21 -21
13z"/>
<path d="M1027 5279 c7 -7 15 -10 18 -7 3 3 -2 9 -12 12 -14 6 -15 5 -6 -5z"/>
<path d="M1070 5261 c0 -6 4 -13 10 -16 6 -3 7 1 4 9 -7 18 -14 21 -14 7z"/>
<path d="M9195 5240 c-3 -5 -1 -10 4 -10 6 0 11 5 11 10 0 6 -2 10 -4 10 -3 0
-8 -4 -11 -10z"/>
<path d="M1080 5209 c0 -5 -6 -7 -12 -3 -10 6 -10 5 -1 -8 7 -8 10 -18 6 -21
-3 -4 -2 -7 4 -7 6 0 11 11 11 25 0 14 -2 25 -4 25 -2 0 -4 -5 -4 -11z"/>
<path d="M9186 5162 c-3 -5 1 -9 9 -9 8 0 15 4 15 9 0 4 -4 8 -9 8 -6 0 -12
-4 -15 -8z"/>
<path d="M9236 5147 c3 -10 9 -15 12 -12 3 3 0 11 -7 18 -10 9 -11 8 -5 -6z"/>
<path d="M1066 5118 c3 -5 10 -6 15 -3 13 9 11 12 -6 12 -8 0 -12 -4 -9 -9z"/>
<path d="M1079 5093 c-13 -16 -12 -17 4 -4 9 7 17 15 17 17 0 8 -8 3 -21 -13z"/>
<path d="M9233 4995 c0 -8 4 -12 9 -9 5 3 6 10 3 15 -9 13 -12 11 -12 -6z"/>
<path d="M1070 4946 c0 -2 7 -7 16 -10 8 -3 12 -2 9 4 -6 10 -25 14 -25 6z"/>
<path d="M9233 4925 c0 -8 4 -12 9 -9 5 3 6 10 3 15 -9 13 -12 11 -12 -6z"/>
<path d="M1110 4880 c0 -5 5 -10 10 -10 6 0 10 5 10 10 0 6 -4 10 -10 10 -5 0
-10 -4 -10 -10z"/>
<path d="M9239 4873 c-13 -16 -12 -17 4 -4 16 13 21 21 13 21 -2 0 -10 -8 -17
-17z"/>
<path d="M1065 4840 c-3 -6 1 -7 9 -4 18 7 21 14 7 14 -6 0 -13 -4 -16 -10z"/>
<path d="M9236 4827 c3 -10 9 -15 12 -12 3 3 0 11 -7 18 -10 9 -11 8 -5 -6z"/>
<path d="M1096 4778 c3 -5 10 -6 15 -3 13 9 11 12 -6 12 -8 0 -12 -4 -9 -9z"/>
<path d="M1096 4747 c3 -10 9 -15 12 -12 3 3 0 11 -7 18 -10 9 -11 8 -5 -6z"/>
<path d="M9266 4658 c3 -5 10 -6 15 -3 13 9 11 12 -6 12 -8 0 -12 -4 -9 -9z"/>
<path d="M9276 4533 c-6 -14 -5 -15 5 -6 7 7 10 15 7 18 -3 3 -9 -2 -12 -12z"/>
<path d="M1153 4514 c0 -7 6 -10 14 -7 7 3 13 8 13 12 0 4 -6 8 -13 8 -8 0
-14 -6 -14 -13z"/>
<path d="M1131 4467 c2 -1 13 -9 24 -17 19 -14 19 -14 6 3 -7 9 -18 17 -24 17
-6 0 -8 -1 -6 -3z"/>
<path d="M1160 4414 c-11 -12 -10 -18 5 -32 18 -16 18 -16 6 1 -11 14 -11 20
-1 32 7 8 10 15 7 15 -2 0 -10 -7 -17 -16z"/>
<path d="M9290 4420 c0 -5 5 -10 11 -10 5 0 7 5 4 10 -3 6 -8 10 -11 10 -2 0
-4 -4 -4 -10z"/>
<path d="M9313 4355 c0 -8 4 -12 9 -9 5 3 6 10 3 15 -9 13 -12 11 -12 -6z"/>
<path d="M9309 4243 c-13 -16 -12 -17 4 -4 16 13 21 21 13 21 -2 0 -10 -8 -17
-17z"/>
<path d="M9335 4209 c-4 -6 -5 -12 -2 -15 2 -3 7 2 10 11 7 17 1 20 -8 4z"/>
<path d="M1184 4162 c4 -3 14 -7 22 -8 9 -1 13 0 10 4 -4 3 -14 7 -22 8 -9 1
-13 0 -10 -4z"/>
<path d="M1170 4059 c0 -5 5 -7 10 -4 6 3 10 8 10 11 0 2 -4 4 -10 4 -5 0 -10
-5 -10 -11z"/>
<path d="M1217 3973 c-10 -9 -9 -23 1 -23 5 0 9 7 9 15 0 17 -1 18 -10 8z"/>
<path d="M1236 3897 c3 -10 9 -15 12 -12 3 3 0 11 -7 18 -10 9 -11 8 -5 -6z"/>
<path d="M9375 3889 c-4 -6 -5 -12 -2 -15 2 -3 7 2 10 11 7 17 1 20 -8 4z"/>
<path d="M1236 3833 c-6 -14 -5 -15 5 -6 7 7 10 15 7 18 -3 3 -9 -2 -12 -12z"/>
<path d="M1230 3666 c0 -2 7 -7 16 -10 8 -3 12 -2 9 4 -6 10 -25 14 -25 6z"/>
<path d="M9393 3605 c0 -8 4 -12 9 -9 5 3 6 10 3 15 -9 13 -12 11 -12 -6z"/>
<path d="M1273 3592 c0 -12 5 -22 9 -22 11 0 10 12 -2 30 -7 12 -9 10 -7 -8z"/>
<path d="M1236 3575 c-9 -26 -7 -32 5 -12 6 10 9 21 6 23 -2 3 -7 -2 -11 -11z"/>
<path d="M9410 3581 c0 -6 4 -13 10 -16 6 -3 7 1 4 9 -7 18 -14 21 -14 7z"/>
<path d="M1253 3505 c0 -8 4 -12 9 -9 5 3 6 10 3 15 -9 13 -12 11 -12 -6z"/>
<path d="M1293 3445 c0 -8 4 -12 9 -9 5 3 6 10 3 15 -9 13 -12 11 -12 -6z"/>
<path d="M1246 3422 c-3 -5 1 -9 9 -9 8 0 12 4 9 9 -3 4 -7 8 -9 8 -2 0 -6 -4
-9 -8z"/>
<path d="M1296 3405 c4 -8 11 -15 16 -15 6 0 5 6 -2 15 -7 8 -14 15 -16 15 -2
0 -1 -7 2 -15z"/>
<path d="M1293 3367 c0 -8 6 -14 14 -14 9 0 10 4 2 14 -6 7 -12 13 -14 13 -1
0 -2 -6 -2 -13z"/>
<path d="M9414 3369 c-3 -6 -2 -15 3 -20 5 -5 9 -1 9 11 0 23 -2 24 -12 9z"/>
<path d="M1294 3198 c-4 -7 -3 -10 1 -5 5 4 18 -1 29 -10 21 -18 21 -18 2 5
-22 26 -23 26 -32 10z"/>
<path d="M9434 3182 c4 -3 14 -7 22 -8 9 -1 13 0 10 4 -4 3 -14 7 -22 8 -9 1
-13 0 -10 -4z"/>
<path d="M1330 3061 c0 -6 4 -13 10 -16 6 -3 7 1 4 9 -7 18 -14 21 -14 7z"/>
<path d="M9456 2998 c3 -5 10 -6 15 -3 13 9 11 12 -6 12 -8 0 -12 -4 -9 -9z"/>
<path d="M1347 2979 c7 -7 15 -10 18 -7 3 3 -2 9 -12 12 -14 6 -15 5 -6 -5z"/>
<path d="M1350 2936 c0 -2 7 -9 15 -16 13 -11 14 -10 9 4 -5 14 -24 23 -24 12z"/>
<path d="M1335 2860 c3 -5 8 -10 11 -10 2 0 4 5 4 10 0 6 -5 10 -11 10 -5 0
-7 -4 -4 -10z"/>
<path d="M9515 2840 c3 -5 8 -10 11 -10 2 0 4 5 4 10 0 6 -5 10 -11 10 -5 0
-7 -4 -4 -10z"/>
<path d="M1357 2772 c-15 -16 -15 -19 -2 -19 8 0 13 3 10 5 -3 3 0 11 6 19 17
20 5 16 -14 -5z"/>
<path d="M9493 2765 c0 -8 4 -15 9 -15 4 0 8 4 8 9 0 6 -4 12 -8 15 -5 3 -9
-1 -9 -9z"/>
<path d="M1382 2720 c0 -14 2 -19 5 -12 2 6 2 18 0 25 -3 6 -5 1 -5 -13z"/>
<path d="M1347 2679 c7 -7 15 -10 18 -7 3 3 -2 9 -12 12 -14 6 -15 5 -6 -5z"/>
<path d="M1395 2610 c3 -5 8 -10 11 -10 2 0 4 5 4 10 0 6 -5 10 -11 10 -5 0
-7 -4 -4 -10z"/>
<path d="M1360 2560 c-9 -6 -10 -10 -3 -10 6 0 15 5 18 10 8 12 4 12 -15 0z"/>
<path d="M1395 2561 c-3 -5 -2 -12 3 -15 5 -3 9 1 9 9 0 17 -3 19 -12 6z"/>
<path d="M1400 2520 c-12 -7 -10 -9 7 -7 12 0 19 5 17 9 -6 10 -6 10 -24 -2z"/>
<path d="M1415 2319 c-3 -4 2 -6 10 -5 21 3 28 13 10 13 -9 0 -18 -4 -20 -8z"/>
<path d="M1436 2291 c-3 -5 1 -11 9 -14 9 -4 12 -1 8 9 -6 16 -10 17 -17 5z"/>
<path d="M1433 2247 c0 -8 6 -14 14 -14 9 0 10 4 2 14 -6 7 -12 13 -14 13 -1
0 -2 -6 -2 -13z"/>
<path d="M9559 2258 c-8 -29 -5 -48 9 -59 15 -12 16 -12 5 2 -7 8 -11 25 -8
37 2 12 2 22 -1 22 -2 0 -4 -1 -5 -2z"/>
<path d="M9590 2101 c0 -6 4 -13 10 -16 6 -3 7 1 4 9 -7 18 -14 21 -14 7z"/>
<path d="M9586 2062 c-3 -5 1 -9 9 -9 8 0 12 4 9 9 -3 4 -7 8 -9 8 -2 0 -6 -4
-9 -8z"/>
<path d="M9610 1981 c0 -6 4 -13 10 -16 6 -3 7 1 4 9 -7 18 -14 21 -14 7z"/>
<path d="M1478 1903 c7 -3 16 -2 19 1 4 3 -2 6 -13 5 -11 0 -14 -3 -6 -6z"/>
<path d="M9606 1858 c3 -5 10 -6 15 -3 13 9 11 12 -6 12 -8 0 -12 -4 -9 -9z"/>
<path d="M1456 1833 c-6 -14 -5 -15 5 -6 7 7 10 15 7 18 -3 3 -9 -2 -12 -12z"/>
<path d="M9505 1780 c-3 -5 -1 -18 5 -27 9 -15 10 -14 4 6 -4 16 -3 21 5 17 6
-4 11 -2 11 3 0 14 -17 14 -25 1z"/>
<path d="M9551 1771 c-18 -14 -21 -20 -11 -26 9 -6 11 -4 5 5 -6 10 -4 12 11
6 10 -4 15 -4 11 0 -4 4 -2 13 4 21 16 18 9 16 -20 -6z"/>
<path d="M9436 1765 c-3 -8 -1 -15 4 -15 6 0 10 7 10 15 0 8 -2 15 -4 15 -2 0
-6 -7 -10 -15z"/>
<path d="M9207 1745 c3 -8 9 -12 14 -9 12 7 11 11 -5 17 -10 4 -13 1 -9 -8z"/>
<path d="M9280 1750 c-9 -6 -10 -10 -3 -10 6 0 15 5 18 10 8 12 4 12 -15 0z"/>
<path d="M9180 1740 c0 -5 5 -10 11 -10 5 0 7 5 4 10 -3 6 -8 10 -11 10 -2 0
-4 -4 -4 -10z"/>
<path d="M9313 1731 c0 -11 5 -18 9 -15 4 3 5 11 1 19 -7 21 -12 19 -10 -4z"/>
<path d="M9456 1742 c-7 -11 -2 -40 9 -49 4 -4 5 -3 1 4 -3 6 4 19 16 27 12 9
18 16 12 16 -5 0 -16 -6 -23 -12 -11 -11 -13 -10 -8 5 7 17 2 23 -7 9z"/>
<path d="M9116 1727 c3 -10 9 -15 12 -12 3 3 0 11 -7 18 -10 9 -11 8 -5 -6z"/>
<path d="M9040 1720 c-8 -5 -12 -12 -9 -15 4 -3 12 1 19 10 14 17 11 19 -10 5z"/>
<path d="M9155 1720 c27 -12 43 -12 25 0 -8 5 -22 9 -30 9 -10 0 -8 -3 5 -9z"/>
<path d="M9255 1721 c-3 -5 0 -13 6 -17 7 -4 9 -3 5 4 -3 6 3 12 16 15 23 4
23 4 1 6 -12 0 -24 -3 -28 -8z"/>
<path d="M9390 1726 c0 -2 9 -6 20 -9 11 -3 18 -1 14 4 -5 9 -34 13 -34 5z"/>
<path d="M9196 1704 c-4 -9 -4 -19 -1 -22 3 -3 5 0 5 7 0 7 4 9 10 6 6 -3 7 1
4 9 -8 20 -10 20 -18 0z"/>
<path d="M9350 1709 c0 -5 5 -7 10 -4 6 3 10 8 10 11 0 2 -4 4 -10 4 -5 0 -10
-5 -10 -11z"/>
<path d="M8866 1698 c3 -4 9 -8 15 -8 5 0 9 4 9 8 0 5 -7 9 -15 9 -8 0 -12 -4
-9 -9z"/>
<path d="M9133 1695 c-3 -9 -3 -18 -1 -21 3 -3 8 4 11 16 6 23 -1 27 -10 5z"/>
<path d="M9387 1699 c7 -7 15 -10 18 -7 3 3 -2 9 -12 12 -14 6 -15 5 -6 -5z"/>
<path d="M8935 1681 c-3 -5 0 -13 6 -17 8 -5 9 -3 4 6 -6 10 -1 11 21 6 21 -5
25 -4 14 4 -19 12 -37 13 -45 1z"/>
<path d="M9010 1682 c0 -5 7 -9 15 -9 8 0 12 4 9 9 -3 4 -9 8 -15 8 -5 0 -9
-4 -9 -8z"/>
<path d="M9095 1681 c-3 -5 -2 -12 3 -15 5 -3 9 1 9 9 0 17 -3 19 -12 6z"/>
<path d="M9254 1682 c4 -3 14 -7 22 -8 9 -1 13 0 10 4 -4 3 -14 7 -22 8 -9 1
-13 0 -10 -4z"/>
<path d="M8580 1671 c-8 -6 -19 -7 -25 -4 -5 3 -4 0 3 -8 10 -11 15 -10 29 4
19 19 16 22 -7 8z"/>
<path d="M8640 1676 c0 -2 7 -9 15 -16 9 -7 15 -8 15 -2 0 5 -7 12 -15 16 -8
3 -15 4 -15 2z"/>
<path d="M1516 1651 c-3 -5 1 -11 9 -14 9 -4 12 -1 8 9 -6 16 -10 17 -17 5z"/>
<path d="M8466 1638 c10 -14 21 -24 23 -22 3 3 -6 15 -18 27 l-24 22 19 -27z"/>
<path d="M8491 1643 c11 -19 15 -20 22 -7 5 9 6 18 3 21 -3 4 -6 1 -6 -7 0
-10 -3 -10 -17 1 -15 13 -15 12 -2 -8z"/>
<path d="M8533 1639 c-2 -23 3 -25 10 -4 4 8 3 16 -1 19 -4 3 -9 -4 -9 -15z"/>
<path d="M8377 1633 c3 -8 0 -13 -8 -11 -7 2 -14 -6 -16 -17 l-3 -20 9 20 c5
11 10 16 11 10 0 -5 7 -2 15 9 13 17 15 17 30 3 9 -9 23 -13 32 -10 12 5 14 3
8 -7 -5 -9 -4 -11 4 -6 15 10 3 29 -15 22 -7 -3 -16 -1 -19 4 -3 4 1 10 7 13
7 2 -3 4 -23 4 -26 -1 -35 -5 -32 -14z"/>
<path d="M8584 1638 c-4 -7 -4 -10 1 -6 4 4 16 3 26 -3 11 -5 19 -7 19 -5 0 3
-9 10 -19 16 -15 7 -22 7 -27 -2z"/>
<path d="M8642 1636 c7 -8 15 -12 17 -11 5 6 -10 25 -20 25 -5 0 -4 -6 3 -14z"/>
<path d="M8910 1645 c0 -7 30 -13 34 -7 3 4 -4 9 -15 9 -10 1 -19 0 -19 -2z"/>
<path d="M8555 1629 c-4 -6 -5 -12 -2 -15 2 -3 7 2 10 11 7 17 1 20 -8 4z"/>
<path d="M8793 1625 c0 -8 4 -12 9 -9 5 3 6 10 3 15 -9 13 -12 11 -12 -6z"/>
<path d="M1494 1619 c-4 -7 -3 -9 4 -5 6 3 15 -2 21 -11 6 -10 11 -13 11 -7 0
20 -27 37 -36 23z"/>
<path d="M8190 1615 c-11 -13 -10 -14 4 -9 9 3 16 10 16 15 0 13 -6 11 -20 -6z"/>
<path d="M8224 1615 c-4 -9 -4 -19 0 -22 3 -4 6 1 6 10 0 19 15 23 23 7 3 -6
4 -5 3 2 -4 19 -25 21 -32 3z"/>
<path d="M8710 1615 c5 -7 6 -16 2 -21 -4 -5 -3 -5 2 -1 15 12 15 34 0 34 -9
0 -11 -4 -4 -12z"/>
<path d="M8130 1612 c0 -5 -16 -8 -35 -7 -19 2 -35 -1 -35 -5 0 -4 18 -7 40
-7 27 0 40 5 40 14 0 7 -2 13 -5 13 -3 0 -5 -4 -5 -8z"/>
<path d="M8593 1605 c0 -8 4 -12 9 -9 5 3 6 10 3 15 -9 13 -12 11 -12 -6z"/>
<path d="M8280 1600 c-8 -5 -10 -10 -5 -10 6 0 17 5 25 10 8 5 11 10 5 10 -5
0 -17 -5 -25 -10z"/>
<path d="M8379 1593 c-12 -16 -12 -17 2 -6 9 7 19 10 22 6 4 -3 7 -1 7 5 0 17
-16 15 -31 -5z"/>
<path d="M8916 1593 c-6 -14 -5 -15 5 -6 7 7 10 15 7 18 -3 3 -9 -2 -12 -12z"/>
<path d="M8039 1580 c-3 -20 -4 -25 -12 -37 -5 -9 -3 -11 6 -7 8 3 15 16 15
30 0 23 -7 34 -9 14z"/>
<path d="M8179 1587 c-6 -8 -4 -45 2 -41 4 2 6 11 3 19 -4 10 0 12 15 8 12 -3
21 -3 21 0 0 4 -38 17 -41 14z"/>
<path d="M8310 1586 c0 -2 7 -7 16 -10 8 -3 12 -2 9 4 -6 10 -25 14 -25 6z"/>
<path d="M1515 1571 c-3 -5 0 -13 6 -17 7 -4 9 -3 5 4 -3 5 0 13 6 15 9 4 10
6 1 6 -6 1 -14 -3 -18 -8z"/>
<path d="M7780 1570 c-8 -5 -18 -6 -23 -3 -5 3 -3 -4 5 -16 7 -12 17 -21 22
-21 4 0 2 8 -5 17 -12 14 -12 16 2 11 9 -3 21 -3 28 2 10 5 9 8 -2 13 -7 3
-20 1 -27 -3z"/>
<path d="M7837 1573 c-11 -11 -8 -21 9 -27 13 -5 14 -4 6 7 -7 8 -9 17 -5 20
3 4 4 7 1 7 -2 0 -8 -3 -11 -7z"/>
<path d="M7900 1570 c-8 -5 -11 -12 -8 -16 4 -3 14 1 23 10 18 17 9 21 -15 6z"/>
<path d="M7937 1566 c-5 -12 -3 -15 5 -10 8 5 9 1 4 -12 -5 -14 -4 -16 4 -7 8
7 9 17 3 28 -9 16 -10 16 -16 1z"/>
<path d="M7973 1554 c0 -17 2 -22 7 -13 5 6 6 18 3 26 -8 19 -10 16 -10 -13z"/>
<path d="M8070 1570 c-9 -6 -10 -10 -3 -10 6 0 15 5 18 10 8 12 4 12 -15 0z"/>
<path d="M8249 1563 c-13 -16 -12 -17 4 -4 16 13 21 21 13 21 -2 0 -10 -8 -17
-17z"/>
<path d="M8290 1576 c0 -2 8 -10 18 -17 15 -13 16 -12 3 4 -13 16 -21 21 -21
13z"/>
<path d="M7612 1543 c-7 -13 -7 -24 0 -34 8 -12 9 -11 5 2 -3 9 0 22 6 28 6 6
8 13 5 17 -4 3 -11 -3 -16 -13z"/>
<path d="M7640 1540 c-6 -11 -8 -20 -6 -20 3 0 10 9 16 20 6 11 8 20 6 20 -3
0 -10 -9 -16 -20z"/>
<path d="M7675 1550 c-3 -5 -1 -10 4 -10 6 0 11 5 11 10 0 6 -2 10 -4 10 -3 0
-8 -4 -11 -10z"/>
<path d="M7996 1543 c-6 -14 -5 -15 5 -6 7 7 10 15 7 18 -3 3 -9 -2 -12 -12z"/>
<path d="M7576 1538 c3 -5 10 -6 15 -3 13 9 11 12 -6 12 -8 0 -12 -4 -9 -9z"/>
<path d="M7804 1539 c-4 -8 -3 -9 5 -5 8 5 10 0 7 -19 -3 -15 -2 -25 1 -21 11
11 13 45 4 51 -5 3 -13 0 -17 -6z"/>
<path d="M7910 1529 c0 -5 5 -7 10 -4 6 3 10 8 10 11 0 2 -4 4 -10 4 -5 0 -10
-5 -10 -11z"/>
<path d="M1533 1509 c-2 -23 3 -25 10 -4 4 8 3 16 -1 19 -4 3 -9 -4 -9 -15z"/>
<path d="M7426 1522 c-2 -4 -1 -14 3 -21 6 -10 10 -9 14 3 6 16 -8 32 -17 18z"/>
<path d="M7655 1519 c-3 -4 0 -11 6 -15 8 -4 9 -3 5 5 -5 8 0 10 18 7 14 -3
26 -1 26 3 0 11 -49 11 -55 0z"/>
<path d="M7384 1512 c3 -6 2 -13 -4 -17 -5 -3 -10 -11 -10 -18 0 -6 6 -3 13 8
8 10 19 15 25 11 7 -4 12 -5 12 -2 0 3 -10 10 -21 17 -13 7 -19 7 -15 1z"/>
<path d="M7506 1512 c-3 -5 1 -9 9 -9 8 0 15 4 15 9 0 4 -4 8 -9 8 -6 0 -12
-4 -15 -8z"/>
<path d="M7243 1485 c0 -14 3 -28 8 -31 5 -3 6 3 2 12 -5 13 -3 15 8 9 12 -7
12 -6 -1 11 -8 10 -15 20 -16 22 -1 2 -1 -9 -1 -23z"/>
<path d="M7290 1499 c0 -5 5 -7 10 -4 6 3 10 8 10 11 0 2 -4 4 -10 4 -5 0 -10
-5 -10 -11z"/>
<path d="M8015 1501 c-3 -5 -2 -12 3 -15 5 -3 9 1 9 9 0 17 -3 19 -12 6z"/>
<path d="M7143 1485 c-3 -9 -3 -18 -1 -21 3 -3 8 4 11 16 6 23 -1 27 -10 5z"/>
<path d="M7170 1484 c-14 -17 -13 -18 1 -7 15 12 29 8 29 -9 0 -4 -5 -7 -11
-5 -6 1 -14 -5 -16 -13 -3 -10 -2 -11 4 -4 4 6 16 10 25 8 10 -1 21 3 25 9 3
7 3 9 -2 5 -4 -4 -15 2 -24 13 -16 20 -17 20 -31 3z"/>
<path d="M7103 1482 c-9 -6 -7 -11 7 -20 12 -7 20 -8 20 -2 0 5 -6 10 -12 10
-9 0 -8 4 2 10 8 5 11 10 5 10 -5 0 -15 -4 -22 -8z"/>
<path d="M7630 1486 c0 -2 7 -7 16 -10 8 -3 12 -2 9 4 -6 10 -25 14 -25 6z"/>
<path d="M7020 1470 c-8 -5 -12 -12 -9 -15 4 -3 12 1 19 10 14 17 11 19 -10 5z"/>
<path d="M7277 1467 c-3 -8 1 -14 8 -14 7 0 11 6 8 14 -3 7 -6 13 -8 13 -2 0
-5 -6 -8 -13z"/>
<path d="M7416 1463 c-6 -14 -5 -15 5 -6 7 7 10 15 7 18 -3 3 -9 -2 -12 -12z"/>
<path d="M1520 1460 c-9 -6 -10 -10 -3 -10 6 0 15 5 18 10 8 12 4 12 -15 0z"/>
<path d="M6904 1447 c-3 -10 -3 -21 0 -24 3 -4 6 0 6 9 0 8 10 20 23 26 l22
10 -23 -1 c-12 -1 -25 -10 -28 -20z"/>
<path d="M6965 1460 c3 -5 8 -10 11 -10 2 0 4 5 4 10 0 6 -5 10 -11 10 -5 0
-7 -4 -4 -10z"/>
<path d="M6990 1451 c0 -6 4 -13 10 -16 6 -3 7 1 4 9 -7 18 -14 21 -14 7z"/>
<path d="M7077 1446 c-3 -8 2 -20 11 -27 14 -11 15 -11 5 0 -6 7 -9 20 -6 27
3 8 3 14 0 14 -3 0 -7 -6 -10 -14z"/>
<path d="M7355 1450 c-4 -6 -11 -7 -17 -4 -7 4 -8 2 -4 -5 6 -9 11 -9 22 0 14
11 18 19 10 19 -3 0 -8 -5 -11 -10z"/>
<path d="M6940 1440 c0 -5 5 -10 10 -10 6 0 10 5 10 10 0 6 -4 10 -10 10 -5 0
-10 -4 -10 -10z"/>
<path d="M7027 1444 c-4 -4 -7 -12 -7 -18 0 -6 5 -4 10 4 9 13 11 13 21 0 9
-12 10 -12 7 -1 -5 17 -21 25 -31 15z"/>
<path d="M6657 1433 c-4 -3 -7 -11 -7 -17 0 -6 5 -5 12 2 6 6 9 14 7 17 -3 3
-9 2 -12 -2z"/>
<path d="M6675 1414 c-9 -15 -12 -23 -6 -20 11 7 35 46 28 46 -3 0 -12 -12
-22 -26z"/>
<path d="M6583 1423 c-22 -8 -15 -22 20 -38 23 -11 27 -12 15 -2 -10 8 -15 17
-11 21 4 4 -1 4 -12 0 -18 -7 -18 -6 -6 9 14 18 14 19 -6 10z"/>
<path d="M6615 1420 c3 -5 11 -10 16 -10 6 0 7 5 4 10 -3 6 -11 10 -16 10 -6
0 -7 -4 -4 -10z"/>
<path d="M6717 1421 c2 -2 -5 -9 -14 -16 -13 -9 -13 -14 -3 -20 9 -5 11 -4 6
3 -9 15 16 16 30 2 7 -7 11 -6 11 5 0 8 -3 13 -5 10 -3 -3 -10 1 -16 8 -6 7
-10 10 -9 8z"/>
<path d="M6794 1415 c-4 -8 -11 -12 -17 -8 -6 4 -7 1 -2 -7 6 -10 11 -10 20 3
14 19 30 23 19 5 -4 -7 -3 -8 5 -4 12 8 6 26 -10 26 -5 0 -12 -7 -15 -15z"/>
<path d="M6875 1420 c-3 -5 -1 -10 4 -10 6 0 11 5 11 10 0 6 -2 10 -4 10 -3 0
-8 -4 -11 -10z"/>
<path d="M6500 1410 c-8 -5 -7 -9 3 -13 9 -3 20 0 26 7 8 9 7 13 -4 13 -8 0
-19 -3 -25 -7z"/>
<path d="M6425 1400 c-4 -6 -12 -7 -18 -3 -7 4 -6 0 2 -10 15 -19 46 -23 56
-7 3 5 12 7 20 4 8 -4 12 -11 8 -17 -4 -6 -1 -7 7 -2 10 6 9 11 -5 21 -10 7
-21 11 -26 9 -4 -3 -9 -2 -12 2 -2 5 -2 2 -1 -4 2 -7 -6 -13 -18 -13 -17 0
-18 2 -8 15 7 8 10 15 7 15 -3 0 -9 -5 -12 -10z"/>
<path d="M6550 1405 c0 -5 5 -17 10 -25 5 -8 10 -10 10 -5 0 6 -5 17 -10 25
-5 8 -10 11 -10 5z"/>
<path d="M6836 1402 c-3 -5 1 -9 9 -9 8 0 12 4 9 9 -3 4 -7 8 -9 8 -2 0 -6 -4
-9 -8z"/>
<path d="M6993 1393 c0 -9 4 -10 14 -2 7 6 13 12 13 14 0 1 -6 2 -13 2 -8 0
-14 -6 -14 -14z"/>
<path d="M7039 1393 c-13 -16 -12 -17 4 -4 16 13 21 21 13 21 -2 0 -10 -8 -17
-17z"/>
<path d="M6630 1396 c0 -2 7 -9 15 -16 13 -11 14 -10 9 4 -5 14 -24 23 -24 12z"/>
<path d="M6935 1391 c-3 -5 -2 -12 3 -15 5 -3 9 1 9 9 0 17 -3 19 -12 6z"/>
<path d="M6265 1382 c3 -3 0 -11 -7 -19 -6 -7 -9 -15 -7 -17 2 -2 12 6 21 18
13 18 14 23 2 23 -8 0 -12 -3 -9 -5z"/>
<path d="M6296 1374 c-9 -24 -2 -26 12 -4 7 11 8 20 3 20 -5 0 -12 -7 -15 -16z"/>
<path d="M6534 1383 c4 -7 3 -13 -2 -13 -14 0 -23 -28 -11 -35 5 -4 8 -1 7 7
-2 7 2 12 9 11 13 -3 12 22 -2 34 -4 4 -5 2 -1 -4z"/>
<path d="M6895 1380 c3 -5 8 -10 11 -10 2 0 4 5 4 10 0 6 -5 10 -11 10 -5 0
-7 -4 -4 -10z"/>
<path d="M6380 1376 c0 -2 7 -7 16 -10 8 -3 12 -2 9 4 -6 10 -25 14 -25 6z"/>
<path d="M6673 1365 c0 -8 4 -12 9 -9 5 3 6 10 3 15 -9 13 -12 11 -12 -6z"/>
<path d="M6310 1347 c-10 -19 -9 -20 2 -6 7 9 19 14 26 12 17 -6 15 4 -3 11
-9 3 -19 -3 -25 -17z"/>
<path d="M6774 1362 c4 -3 14 -7 22 -8 9 -1 13 0 10 4 -4 3 -14 7 -22 8 -9 1
-13 0 -10 -4z"/>
<path d="M6155 1340 c-4 -12 -11 -17 -18 -14 -7 4 -8 3 -4 -2 11 -12 57 -13
57 -1 0 5 -7 6 -16 3 -12 -4 -14 -1 -9 14 4 11 4 20 1 20 -2 0 -8 -9 -11 -20z"/>
<path d="M6615 1351 c-3 -5 -2 -12 3 -15 5 -3 9 1 9 9 0 17 -3 19 -12 6z"/>
<path d="M6214 1342 c3 -5 1 -12 -6 -14 -8 -3 -9 -6 -1 -11 6 -4 13 0 17 8 3
8 0 17 -6 21 -6 4 -8 3 -4 -4z"/>
<path d="M6270 1340 c0 -5 5 -10 11 -10 5 0 7 5 4 10 -3 6 -8 10 -11 10 -2 0
-4 -4 -4 -10z"/>
<path d="M6388 1343 c7 -3 16 -2 19 1 4 3 -2 6 -13 5 -11 0 -14 -3 -6 -6z"/>
<path d="M6428 1343 c7 -3 16 -2 19 1 4 3 -2 6 -13 5 -11 0 -14 -3 -6 -6z"/>
<path d="M6354 1320 c0 -13 4 -16 10 -10 7 7 7 13 0 20 -6 6 -10 3 -10 -10z"/>
<path d="M1565 1320 c-3 -5 -1 -10 4 -10 6 0 11 5 11 10 0 6 -2 10 -4 10 -3 0
-8 -4 -11 -10z"/>
<path d="M5793 1315 c0 -8 4 -12 9 -9 4 3 8 9 8 15 0 5 -4 9 -8 9 -5 0 -9 -7
-9 -15z"/>
<path d="M5858 1320 c-2 -8 -13 -15 -23 -15 -10 0 -19 -8 -21 -18 -1 -11 0
-16 3 -13 4 3 16 -2 27 -11 15 -13 14 -9 -4 11 -16 19 -20 27 -9 24 21 -8 43
6 37 23 -4 11 -6 11 -10 -1z"/>
<path d="M5950 1320 c0 -6 7 -10 15 -10 8 0 15 2 15 4 0 2 -7 6 -15 10 -8 3
-15 1 -15 -4z"/>
<path d="M6020 1326 c0 -2 7 -6 15 -10 8 -3 15 -1 15 4 0 6 -7 10 -15 10 -8 0
-15 -2 -15 -4z"/>
<path d="M5690 1310 c-9 -6 -10 -10 -3 -10 6 0 15 5 18 10 8 12 4 12 -15 0z"/>
<path d="M5645 1300 c-3 -6 1 -7 9 -4 18 7 21 14 7 14 -6 0 -13 -4 -16 -10z"/>
<path d="M5710 1295 c-13 -7 -31 -10 -39 -7 -12 4 -13 2 -5 -7 9 -10 18 -9 42
3 23 12 32 13 35 3 4 -9 6 -9 6 0 1 19 -13 22 -39 8z"/>
<path d="M6310 1306 c0 -2 7 -7 16 -10 8 -3 12 -2 9 4 -6 10 -25 14 -25 6z"/>
<path d="M1556 1285 c4 -8 11 -15 16 -15 6 0 5 6 -2 15 -7 8 -14 15 -16 15 -2
0 -1 -7 2 -15z"/>
<path d="M5566 1285 c25 -19 34 -19 34 3 0 13 -2 14 -9 3 -6 -9 -11 -10 -15
-2 -4 6 -12 11 -19 11 -6 0 -2 -7 9 -15z"/>
<path d="M5465 1281 c-3 -5 0 -13 6 -17 8 -4 7 -9 -2 -15 -8 -5 -9 -9 -3 -9 5
0 18 6 27 13 13 9 14 16 6 27 -9 12 -10 12 -5 -3 4 -12 2 -17 -6 -14 -7 2 -12
10 -10 16 3 13 -5 15 -13 2z"/>
<path d="M5525 1280 c-3 -5 -1 -10 4 -10 6 0 11 5 11 10 0 6 -2 10 -4 10 -3 0
-8 -4 -11 -10z"/>
<path d="M5763 1273 c-10 -10 -13 -14 -6 -10 6 5 18 5 24 1 7 -4 9 -3 5 4 -3
5 0 13 6 15 8 4 9 6 2 6 -7 1 -20 -7 -31 -16z"/>
<path d="M5876 1273 c-6 -14 -5 -15 5 -6 7 7 10 15 7 18 -3 3 -9 -2 -12 -12z"/>
<path d="M5934 1275 c3 -23 12 -26 13 -5 1 11 -2 20 -7 20 -4 0 -7 -7 -6 -15z"/>
<path d="M5556 1267 c3 -10 9 -15 12 -12 3 3 0 11 -7 18 -10 9 -11 8 -5 -6z"/>
<path d="M5313 1260 c2 -8 0 -23 -5 -32 -5 -10 -6 -18 -4 -18 13 0 24 37 15
51 -9 12 -10 12 -6 -1z"/>
<path d="M5339 1258 c11 -15 41 -15 41 -1 0 3 -6 3 -14 0 -7 -3 -20 0 -27 6
-11 10 -11 9 0 -5z"/>
<path d="M5696 1261 c-3 -5 2 -15 12 -22 15 -12 16 -12 5 2 -7 9 -10 19 -6 22
3 4 4 7 0 7 -3 0 -8 -4 -11 -9z"/>
<path d="M5990 1266 c0 -2 7 -7 16 -10 8 -3 12 -2 9 4 -6 10 -25 14 -25 6z"/>
<path d="M6050 1265 c0 -7 30 -13 34 -7 3 4 -4 9 -15 9 -10 1 -19 0 -19 -2z"/>
<path d="M5242 1244 c10 -10 20 -16 22 -13 3 3 -5 11 -17 18 -21 13 -21 12 -5
-5z"/>
<path d="M5528 1253 c-21 -5 -23 -19 -5 -29 6 -4 9 -4 5 1 -4 4 0 14 10 21 18
14 17 14 -10 7z"/>
<path d="M1566 1242 c-3 -5 1 -9 9 -9 8 0 12 4 9 9 -3 4 -7 8 -9 8 -2 0 -6 -4
-9 -8z"/>
<path d="M5191 1233 c7 -12 15 -20 18 -17 3 2 -3 12 -13 22 -17 16 -18 16 -5
-5z"/>
<path d="M5226 1228 c10 -14 21 -24 23 -22 3 3 -6 15 -18 27 l-24 22 19 -27z"/>
<path d="M5574 1238 c-3 -5 0 -7 8 -6 7 2 12 -4 10 -12 -2 -8 0 -11 4 -7 14
13 12 34 -3 34 -7 0 -16 -4 -19 -9z"/>
<path d="M5023 1201 c-1 -14 1 -19 4 -11 3 8 10 18 15 21 5 3 3 9 -4 11 -9 4
-14 -3 -15 -21z"/>
<path d="M5435 1220 c3 -5 8 -10 11 -10 2 0 4 5 4 10 0 6 -5 10 -11 10 -5 0
-7 -4 -4 -10z"/>
<path d="M5470 1216 c7 -7 13 -7 20 0 6 6 3 10 -10 10 -13 0 -16 -4 -10 -10z"/>
<path d="M5735 1221 c-3 -5 -2 -12 3 -15 5 -3 9 1 9 9 0 17 -3 19 -12 6z"/>
<path d="M5060 1205 c0 -8 4 -15 10 -15 5 0 7 7 4 15 -4 8 -8 15 -10 15 -2 0
-4 -7 -4 -15z"/>
<path d="M5093 1194 c0 -17 2 -22 7 -13 5 6 6 18 3 26 -8 19 -10 16 -10 -13z"/>
<path d="M5125 1200 c22 -24 22 -24 22 -5 0 8 -4 12 -9 9 -4 -3 -8 0 -8 5 0 6
-5 11 -12 11 -6 0 -3 -9 7 -20z"/>
<path d="M5263 1200 c-10 -15 -10 -21 0 -26 6 -4 9 -3 4 1 -4 5 0 17 10 27 9
10 12 18 7 18 -5 0 -15 -9 -21 -20z"/>
<path d="M5390 1217 c0 -2 6 -10 14 -16 11 -9 16 -9 22 1 4 7 4 10 -1 6 -4 -4
-14 -3 -22 3 -7 6 -13 9 -13 6z"/>
<path d="M4934 1198 c-5 -8 -2 -9 10 -5 13 5 17 3 13 -6 -3 -8 1 -14 8 -14 10
0 11 5 4 19 -11 21 -25 23 -35 6z"/>
<path d="M4800 1189 c0 -5 -4 -8 -10 -4 -5 3 -18 -3 -28 -13 -19 -19 -19 -19
5 -19 18 0 21 2 12 8 -14 8 -12 10 13 13 11 1 25 26 14 26 -3 0 -6 -5 -6 -11z"/>
<path d="M4704 1175 c-3 -8 -4 -20 -2 -27 3 -7 7 -1 10 15 6 29 1 36 -8 12z"/>
<path d="M4995 1180 c-3 -5 -1 -10 4 -10 6 0 11 5 11 10 0 6 -2 10 -4 10 -3 0
-8 -4 -11 -10z"/>
<path d="M1553 1165 c0 -8 3 -13 5 -10 3 3 10 0 17 -5 8 -7 12 -5 12 5 0 8 -3
13 -5 10 -3 -3 -10 0 -17 5 -8 7 -12 5 -12 -5z"/>
<path d="M4530 1159 c0 -5 -4 -8 -9 -5 -14 9 -7 -62 8 -76 12 -11 12 -10 5 2
-12 21 -17 63 -7 57 5 -3 10 3 10 14 1 10 0 19 -3 19 -2 0 -4 -5 -4 -11z"/>
<path d="M4810 1160 c0 -5 5 -10 10 -10 6 0 10 5 10 10 0 6 -4 10 -10 10 -5 0
-10 -4 -10 -10z"/>
<path d="M4866 1162 c-2 -4 4 -8 14 -8 10 0 16 4 14 8 -3 4 -9 8 -14 8 -5 0
-11 -4 -14 -8z"/>
<path d="M4635 1141 c-3 -5 0 -13 6 -17 8 -5 9 -3 4 6 -6 10 -4 12 9 7 10 -4
15 -3 11 3 -8 13 -22 13 -30 1z"/>
<path d="M4164 1114 c-18 -14 -18 -15 4 -4 12 6 22 13 22 15 0 8 -5 6 -26 -11z"/>
<path d="M4356 1122 c-3 -5 1 -9 9 -9 8 0 15 4 15 9 0 4 -4 8 -9 8 -6 0 -12
-4 -15 -8z"/>
<path d="M4415 1120 c-3 -6 1 -7 9 -4 18 7 21 14 7 14 -6 0 -13 -4 -16 -10z"/>
<path d="M4690 1115 c5 -7 6 -16 2 -21 -4 -5 -3 -5 2 -1 15 12 15 34 0 34 -9
0 -11 -4 -4 -12z"/>
<path d="M4115 1094 c-9 -15 -12 -23 -6 -20 11 7 35 46 28 46 -3 0 -12 -12
-22 -26z"/>
<path d="M4203 1113 c-15 -5 -17 -23 -4 -23 5 0 11 7 15 15 3 8 4 15 3 14 -1
0 -8 -3 -14 -6z"/>
<path d="M4655 1111 c-3 -5 -2 -12 3 -15 5 -3 9 1 9 9 0 17 -3 19 -12 6z"/>
<path d="M4313 1092 c2 -12 6 -24 10 -28 3 -4 4 4 2 16 -6 30 -16 40 -12 12z"/>
<path d="M4433 1088 c-2 -18 0 -20 7 -8 12 18 13 30 2 30 -4 0 -9 -10 -9 -22z"/>
<path d="M4476 1102 c-3 -5 1 -9 9 -9 8 0 12 4 9 9 -3 4 -7 8 -9 8 -2 0 -6 -4
-9 -8z"/>
<path d="M4725 1100 c-3 -6 1 -7 9 -4 18 7 21 14 7 14 -6 0 -13 -4 -16 -10z"/>
<path d="M3920 1090 c-9 -6 -10 -10 -3 -10 6 0 15 5 18 10 8 12 4 12 -15 0z"/>
<path d="M1585 1079 c-4 -6 -4 -13 -1 -16 3 -4 6 -1 6 6 0 7 5 9 12 5 7 -4 8
-3 4 4 -9 15 -13 15 -21 1z"/>
<path d="M3872 1073 c3 -13 12 -17 36 -16 21 1 30 -2 26 -9 -4 -7 -2 -8 5 -4
15 10 3 29 -14 22 -8 -3 -19 2 -25 10 -17 19 -32 18 -28 -3z m23 -3 c3 -5 1
-10 -4 -10 -6 0 -11 5 -11 10 0 6 2 10 4 10 3 0 8 -4 11 -10z"/>
<path d="M3950 1080 c0 -5 7 -7 15 -4 8 4 15 8 15 10 0 2 -7 4 -15 4 -8 0 -15
-4 -15 -10z"/>
<path d="M4135 1081 c-3 -5 0 -13 6 -17 7 -4 9 -3 5 4 -3 6 3 12 16 15 23 4
23 4 1 6 -12 0 -24 -3 -28 -8z"/>
<path d="M4366 1078 c3 -5 10 -6 15 -3 13 9 11 12 -6 12 -8 0 -12 -4 -9 -9z"/>
<path d="M3820 1076 c0 -2 7 -6 15 -10 8 -3 15 -1 15 4 0 6 -7 10 -15 10 -8 0
-15 -2 -15 -4z"/>
<path d="M4193 1067 c0 -8 6 -14 14 -14 9 0 10 4 2 14 -6 7 -12 13 -14 13 -1
0 -2 -6 -2 -13z"/>
<path d="M3770 1059 c0 -5 5 -7 10 -4 6 3 10 8 10 11 0 2 -4 4 -10 4 -5 0 -10
-5 -10 -11z"/>
<path d="M3977 1049 c4 -13 8 -18 11 -10 2 7 -1 18 -6 23 -8 8 -9 4 -5 -13z"/>
<path d="M4057 1063 c-3 -5 5 -8 18 -8 13 0 21 3 18 8 -2 4 -10 7 -18 7 -8 0
-16 -3 -18 -7z"/>
<path d="M4236 1058 c3 -5 10 -6 15 -3 13 9 11 12 -6 12 -8 0 -12 -4 -9 -9z"/>
<path d="M3659 1050 c-7 -5 -10 -13 -5 -17 5 -4 11 -3 13 4 2 7 11 9 19 6 8
-3 14 -3 14 0 0 10 -27 15 -41 7z"/>
<path d="M3794 1045 c-12 -9 -14 -14 -6 -15 7 0 11 -4 8 -8 -3 -5 1 -9 9 -9
11 0 12 4 4 13 -7 9 -5 15 8 23 10 6 13 11 7 11 -5 0 -19 -7 -30 -15z"/>
<path d="M4116 1047 c3 -10 9 -15 12 -12 3 3 0 11 -7 18 -10 9 -11 8 -5 -6z"/>
<path d="M3711 1031 c0 -10 2 -12 6 -3 2 6 8 10 12 8 4 -3 13 -1 20 3 9 6 4 9
-13 9 -18 0 -26 -6 -25 -17z"/>
<path d="M3954 1039 c-3 -6 -2 -15 3 -20 5 -5 9 -1 9 11 0 23 -2 24 -12 9z"/>
<path d="M4370 1040 c0 -5 5 -10 11 -10 5 0 7 5 4 10 -3 6 -8 10 -11 10 -2 0
-4 -4 -4 -10z"/>
<path d="M4426 1042 c-2 -4 4 -8 14 -8 10 0 16 4 14 8 -3 4 -9 8 -14 8 -5 0
-11 -4 -14 -8z"/>
<path d="M3507 1024 c6 -15 23 -19 23 -5 0 5 -7 11 -14 14 -10 4 -13 1 -9 -9z"/>
<path d="M3577 1032 c2 -3 -7 -12 -19 -20 -18 -11 -19 -12 -3 -7 11 4 28 8 39
11 10 2 21 6 25 10 3 4 -1 5 -10 1 -9 -3 -21 -2 -26 3 -6 4 -8 5 -6 2z"/>
<path d="M3833 1025 c0 -7 6 -11 14 -8 7 3 13 6 13 8 0 2 -6 5 -13 8 -8 3 -14
-1 -14 -8z"/>
<path d="M3395 1019 c-4 -6 -5 -12 -2 -15 2 -3 7 2 10 11 7 17 1 20 -8 4z"/>
<path d="M3750 1021 c0 -6 4 -12 8 -15 5 -3 9 1 9 9 0 8 -4 15 -9 15 -4 0 -8
-4 -8 -9z"/>
<path d="M4095 1020 c-3 -5 -1 -10 4 -10 6 0 11 5 11 10 0 6 -2 10 -4 10 -3 0
-8 -4 -11 -10z"/>
<path d="M3329 1001 c6 -10 7 -22 3 -26 -4 -4 4 -2 18 5 35 18 39 24 11 15
-15 -4 -21 -3 -17 3 3 5 -1 13 -9 16 -12 4 -13 2 -6 -13z"/>
<path d="M3630 1016 c0 -2 7 -9 15 -16 13 -11 14 -10 9 4 -5 14 -24 23 -24 12z"/>
<path d="M1593 990 c1 -11 5 -20 9 -20 3 0 6 9 5 20 -1 11 -5 20 -9 20 -3 0
-6 -9 -5 -20z"/>
<path d="M3217 997 c4 -6 -3 -8 -15 -5 -12 4 -20 2 -16 -3 8 -13 30 -11 43 4
8 10 7 14 -4 14 -8 0 -11 -5 -8 -10z"/>
<path d="M3256 997 c4 -12 2 -17 -7 -15 -15 3 -22 -49 -8 -57 4 -3 5 9 2 26
-3 19 -1 29 6 25 15 -9 25 14 12 27 -9 9 -11 8 -5 -6z"/>
<path d="M3410 995 c0 -8 2 -15 4 -15 2 0 6 7 10 15 3 8 1 15 -4 15 -6 0 -10
-7 -10 -15z"/>
<path d="M3450 1000 c0 -5 5 -10 10 -10 6 0 10 5 10 10 0 6 -4 10 -10 10 -5 0
-10 -4 -10 -10z"/>
<path d="M3485 1000 c3 -5 8 -10 11 -10 2 0 4 5 4 10 0 6 -5 10 -11 10 -5 0
-7 -4 -4 -10z"/>
<path d="M3152 984 c-7 -8 -8 -14 -3 -14 10 0 25 19 20 25 -2 1 -10 -3 -17
-11z"/>
<path d="M3519 998 c-5 -19 -8 -50 -4 -46 7 7 15 48 9 48 -2 0 -4 -1 -5 -2z"/>
<path d="M4155 989 c-4 -6 -5 -12 -2 -15 2 -3 7 2 10 11 7 17 1 20 -8 4z"/>
<path d="M3547 979 c7 -7 15 -10 18 -7 3 3 -2 9 -12 12 -14 6 -15 5 -6 -5z"/>
<path d="M3770 986 c0 -2 7 -7 16 -10 8 -3 12 -2 9 4 -6 10 -25 14 -25 6z"/>
<path d="M2983 972 c-9 -5 -3 -13 20 -26 26 -14 28 -14 12 -1 -11 9 -19 21
-17 26 3 11 1 11 -15 1z"/>
<path d="M3046 965 c-11 -8 -15 -15 -10 -15 6 0 14 4 20 9 5 5 18 11 29 14
l20 5 -20 1 c-11 0 -29 -6 -39 -14z"/>
<path d="M3293 966 c0 -7 6 -13 14 -13 7 0 13 4 13 8 0 4 -6 9 -13 12 -8 3
-14 0 -14 -7z"/>
<path d="M2902 949 c-8 -12 -8 -19 -2 -19 5 0 10 5 10 11 0 5 4 8 9 5 4 -3 16
0 25 7 15 11 14 12 -7 13 -13 1 -29 -7 -35 -17z"/>
<path d="M3100 960 c-12 -7 -10 -9 8 -7 12 0 22 5 22 9 0 11 -12 10 -30 -2z"/>
<path d="M3413 951 c0 -11 5 -18 9 -15 4 3 5 11 1 19 -7 21 -12 19 -10 -4z"/>
<path d="M3333 945 c0 -8 4 -12 9 -9 5 3 6 10 3 15 -9 13 -12 11 -12 -6z"/>
<path d="M2770 939 c0 -5 5 -7 10 -4 6 3 10 8 10 11 0 2 -4 4 -10 4 -5 0 -10
-5 -10 -11z"/>
<path d="M2950 928 c-10 -21 -10 -21 3 -5 16 19 32 24 21 5 -4 -7 -3 -8 5 -4
12 8 6 26 -9 26 -5 0 -14 -10 -20 -22z"/>
<path d="M3055 941 c-3 -5 0 -13 6 -17 7 -4 9 -3 5 4 -3 5 0 13 6 15 9 4 10 6
1 6 -6 1 -14 -3 -18 -8z"/>
<path d="M3147 932 c3 -7 9 -10 12 -5 3 4 10 11 15 15 4 4 -1 6 -12 5 -12 -1
-18 -6 -15 -15z"/>
<path d="M3195 940 c3 -5 8 -10 11 -10 2 0 4 5 4 10 0 6 -5 10 -11 10 -5 0 -7
-4 -4 -10z"/>
<path d="M3445 940 c-3 -6 1 -7 9 -4 18 7 21 14 7 14 -6 0 -13 -4 -16 -10z"/>
<path d="M2683 925 c-3 -9 -3 -19 1 -22 3 -4 6 1 6 10 0 8 6 18 13 20 9 4 9 6
-1 6 -7 1 -15 -6 -19 -14z"/>
<path d="M2736 925 c10 -8 26 -14 34 -15 8 0 2 7 -14 15 -36 19 -45 19 -20 0z"/>
<path d="M1601 916 c-8 -10 -9 -16 -1 -21 6 -4 9 -1 8 7 -2 7 3 12 10 10 8 -1
11 2 7 8 -8 13 -10 13 -24 -4z"/>
<path d="M2610 923 c0 -16 48 -34 56 -21 4 7 3 8 -4 4 -7 -4 -12 -2 -12 5 0 7
-3 9 -7 6 -3 -4 -12 -2 -20 4 -7 7 -13 7 -13 2z"/>
<path d="M2820 925 c0 -8 29 -12 39 -5 9 5 4 8 -13 8 -14 0 -26 -2 -26 -3z"/>
<path d="M2480 905 c-24 -13 -24 -14 -3 -12 12 1 25 7 27 14 6 16 7 16 -24 -2z"/>
<path d="M2540 910 c-8 -5 -12 -12 -9 -15 4 -3 12 1 19 10 14 17 11 19 -10 5z"/>
<path d="M2706 912 c-3 -4 4 -9 15 -9 23 -2 25 3 4 10 -8 4 -16 3 -19 -1z"/>
<path d="M2870 910 c-9 -6 -10 -10 -3 -10 6 0 15 5 18 10 8 12 4 12 -15 0z"/>
<path d="M2819 908 c-5 -18 -6 -38 -1 -34 7 8 12 36 6 36 -2 0 -4 -1 -5 -2z"/>
<path d="M2508 877 c-3 -14 0 -24 7 -24 7 0 10 10 7 24 -2 13 -6 23 -7 23 -1
0 -5 -10 -7 -23z"/>
<path d="M2601 884 c0 -11 3 -14 6 -6 3 7 2 16 -1 19 -3 4 -6 -2 -5 -13z"/>
<path d="M2421 881 c-10 -7 -7 -9 12 -8 14 1 23 5 20 10 -6 9 -15 9 -32 -2z"/>
<path d="M2670 878 c0 -3 9 -6 20 -5 11 1 20 5 20 9 0 3 -9 6 -20 5 -11 -1
-20 -5 -20 -9z"/>
<path d="M2733 870 c1 -21 10 -18 13 5 1 8 -2 15 -6 15 -5 0 -8 -9 -7 -20z"/>
<path d="M2113 850 c-1 -11 2 -20 7 -20 4 0 7 7 6 15 -3 23 -12 26 -13 5z"/>
<path d="M2270 860 c0 -5 5 -10 10 -10 6 0 10 5 10 10 0 6 -4 10 -10 10 -5 0
-10 -4 -10 -10z"/>
<path d="M2390 860 c0 -5 5 -10 11 -10 5 0 7 5 4 10 -3 6 -8 10 -11 10 -2 0
-4 -4 -4 -10z"/>
<path d="M2041 834 l-24 -25 26 12 c15 7 24 15 22 20 -3 4 5 10 17 12 20 4 20
4 3 5 -11 1 -31 -10 -44 -24z"/>
<path d="M2142 840 c0 -14 2 -19 5 -12 2 6 2 18 0 25 -3 6 -5 1 -5 -13z"/>
<path d="M2430 846 c0 -8 4 -17 8 -20 4 -2 8 4 8 15 0 10 -4 19 -8 19 -4 0 -8
-6 -8 -14z"/>
<path d="M1930 835 c-14 -8 -20 -14 -14 -15 5 0 19 7 30 15 24 18 16 19 -16 0z"/>
<path d="M1977 833 c3 -8 0 -13 -8 -11 -7 2 -15 -5 -17 -14 -2 -10 1 -18 7
-18 6 0 7 7 4 17 -4 10 -2 14 5 9 6 -3 15 2 21 12 7 14 6 19 -4 19 -7 0 -11
-7 -8 -14z"/>
<path d="M2180 846 c0 -2 7 -6 15 -10 8 -3 15 -1 15 4 0 6 -7 10 -15 10 -8 0
-15 -2 -15 -4z"/>
<path d="M2353 830 c1 -21 10 -18 13 5 1 8 -2 15 -6 15 -5 0 -8 -9 -7 -20z"/>
<path d="M2546 842 c-2 -4 4 -8 14 -8 10 0 16 4 14 8 -3 4 -9 8 -14 8 -5 0
-11 -4 -14 -8z"/>
<path d="M1886 823 c-6 -14 -5 -15 5 -6 7 7 10 15 7 18 -3 3 -9 -2 -12 -12z"/>
<path d="M2270 830 c0 -5 5 -10 11 -10 5 0 7 5 4 10 -3 6 -8 10 -11 10 -2 0
-4 -4 -4 -10z"/>
<path d="M1811 825 c0 -5 4 -19 9 -30 7 -16 9 -17 9 -3 1 9 4 18 9 21 4 2 2 2
-5 1 -6 -2 -14 2 -17 9 -2 7 -4 8 -5 2z"/>
<path d="M2075 821 c-3 -5 0 -13 6 -17 8 -5 9 -3 4 6 -6 10 -4 12 9 7 10 -4
15 -3 11 3 -8 13 -22 13 -30 1z"/>
<path d="M2224 822 c4 -3 14 -7 22 -8 9 -1 13 0 10 4 -4 3 -14 7 -22 8 -9 1
-13 0 -10 -4z"/>
<path d="M2495 820 c-3 -5 -1 -10 4 -10 6 0 11 5 11 10 0 6 -2 10 -4 10 -3 0
-8 -4 -11 -10z"/>
<path d="M1695 800 c3 -5 8 -10 11 -10 2 0 4 5 4 10 0 6 -5 10 -11 10 -5 0 -7
-4 -4 -10z"/>
<path d="M1760 796 c0 -8 4 -17 9 -20 5 -4 7 3 4 14 -6 23 -13 26 -13 6z"/>
<path d="M1780 799 c0 -5 5 -7 10 -4 6 3 10 8 10 11 0 2 -4 4 -10 4 -5 0 -10
-5 -10 -11z"/>
<path d="M2037 795 c-4 -8 -3 -16 1 -19 4 -3 9 4 9 15 2 23 -3 25 -10 4z"/>
<path d="M2130 795 c5 -7 6 -16 2 -21 -4 -5 -3 -5 2 -1 15 12 15 34 0 34 -9 0
-11 -4 -4 -12z"/>
<path d="M1673 785 c0 -8 4 -15 9 -15 4 0 8 4 8 9 0 6 -4 12 -8 15 -5 3 -9 -1
-9 -9z"/>
<path d="M1721 793 c-1 -17 16 -25 25 -12 4 7 3 9 -4 5 -5 -3 -13 0 -15 6 -4
9 -6 10 -6 1z"/>
<path d="M1799 788 c-5 -18 -6 -38 -1 -34 7 8 12 36 6 36 -2 0 -4 -1 -5 -2z"/>
<path d="M1856 781 c-3 -5 2 -15 12 -22 15 -12 16 -12 5 2 -7 9 -10 19 -6 22
3 4 4 7 0 7 -3 0 -8 -4 -11 -9z"/>
<path d="M2165 780 c-3 -6 1 -7 9 -4 18 7 21 14 7 14 -6 0 -13 -4 -16 -10z"/>
</g>
</svg>
